<svg width="195" height="119" viewBox="0 0 195 119" fill="none" xmlns="http://www.w3.org/2000/svg">
<g clip-path="url(#clip0_155_142)">
<path d="M112.556 34.8159C117.602 34.8159 121.692 30.7256 121.692 25.6799C121.692 20.6343 117.602 16.5439 112.556 16.5439C107.511 16.5439 103.42 20.6343 103.42 25.6799C103.42 30.7256 107.511 34.8159 112.556 34.8159Z" stroke="white" stroke-width="2.01557"/>
<path d="M82.3437 34.8159C87.3894 34.8159 91.4797 30.7256 91.4797 25.6799C91.4797 20.6343 87.3894 16.5439 82.3437 16.5439C77.298 16.5439 73.2077 20.6343 73.2077 25.6799C73.2077 30.7256 77.298 34.8159 82.3437 34.8159Z" stroke="white" stroke-width="2.01557"/>
<path d="M64.5704 52.4311C64.5407 52.7301 64.759 52.9965 65.0579 53.0262C65.3568 53.0559 65.6233 52.8377 65.6529 52.5387L64.5704 52.4311ZM65.1117 52.485C65.6529 52.5387 65.6529 52.5386 65.6529 52.5387C65.6529 52.5388 65.6529 52.5387 65.6529 52.5387C65.6529 52.5385 65.653 52.5383 65.653 52.5376C65.6532 52.5362 65.6535 52.5338 65.6539 52.5303C65.6546 52.5235 65.6557 52.5126 65.6575 52.4978C65.6609 52.4682 65.6663 52.423 65.6741 52.3633C65.6897 52.2438 65.7151 52.0662 65.7531 51.8388C65.8292 51.3838 65.9562 50.7303 66.1586 49.9447C66.5642 48.3715 67.2698 46.2796 68.4687 44.1929C70.856 40.0377 75.1906 35.9028 83.0885 35.9028V34.8149C74.7119 34.8149 70.0577 39.243 67.5254 43.6509C66.2644 45.8457 65.5273 48.0354 65.1052 49.6732C64.8939 50.4932 64.7606 51.1777 64.6801 51.6593C64.6399 51.9002 64.6126 52.0905 64.5954 52.2219C64.5868 52.2876 64.5807 52.3386 64.5766 52.3738C64.5747 52.3914 64.5731 52.4051 64.5721 52.4147C64.5716 52.4195 64.5712 52.4233 64.5709 52.426C64.5708 52.4274 64.5707 52.4285 64.5706 52.4294C64.5706 52.4298 64.5705 52.4302 64.5705 52.4304C64.5704 52.4308 64.5704 52.4311 65.1117 52.485ZM83.0885 35.9028C88.2722 35.9028 92.3903 38.4076 95.2266 41.4991C96.6445 43.0447 97.7337 44.7291 98.4667 46.3011C99.204 47.8817 99.5645 49.3136 99.5645 50.3575H100.653C100.653 49.0989 100.228 47.5048 99.4528 45.8414C98.6734 44.1695 97.5221 42.392 96.0281 40.7636C93.0407 37.507 88.6489 34.8149 83.0885 34.8149V35.9028ZM99.5645 50.3575C99.5645 51.4116 98.3868 52.3139 97.0574 51.9594L96.7773 53.0105C98.6388 53.507 100.653 52.2818 100.653 50.3575H99.5645Z" fill="white"/>
<path d="M130.435 52.4378C130.461 52.7371 130.239 53.0008 129.94 53.0268C129.64 53.0529 129.377 52.8314 129.351 52.5321L130.435 52.4378ZM129.893 52.485C129.351 52.5321 129.351 52.532 129.351 52.5321C129.351 52.5322 129.351 52.532 129.351 52.5321C129.351 52.5319 129.351 52.5316 129.35 52.5309C129.35 52.5295 129.35 52.5271 129.35 52.5237C129.349 52.5169 129.348 52.5059 129.347 52.4912C129.344 52.4616 129.339 52.4164 129.332 52.3567C129.317 52.2372 129.294 52.0596 129.259 51.8323C129.189 51.3774 129.07 50.724 128.878 49.9386C128.492 48.3655 127.812 46.2743 126.639 44.1884C124.305 40.0362 120.025 35.9028 112.128 35.9028V34.8149C120.506 34.8149 125.109 39.2445 127.588 43.6554C128.822 45.851 129.532 48.0413 129.934 49.6794C130.135 50.4995 130.26 51.1841 130.334 51.6658C130.371 51.9067 130.396 52.0971 130.412 52.2285C130.42 52.2942 130.425 52.3452 130.429 52.3805C130.431 52.3981 130.432 52.4118 130.433 52.4214C130.434 52.4262 130.434 52.43 130.434 52.4327C130.434 52.4341 130.434 52.4352 130.434 52.4361C130.434 52.4365 130.434 52.4369 130.435 52.4371C130.435 52.4375 130.435 52.4378 129.893 52.485ZM112.128 35.9028C106.945 35.9028 102.827 38.4076 99.9903 41.4991C98.5725 43.0447 97.4833 44.7291 96.7503 46.3011C96.013 47.8817 95.6525 49.3136 95.6525 50.3575H94.5644C94.5644 49.0989 94.9886 47.5048 95.7642 45.8414C96.5436 44.1695 97.6949 42.392 99.1888 40.7636C102.176 37.507 106.568 34.8149 112.128 34.8149V35.9028ZM95.6525 50.3575C95.6525 51.4116 96.8302 52.3139 98.1596 51.9594L98.4397 53.0105C96.5781 53.507 94.5644 52.2818 94.5644 50.3575H95.6525Z" fill="white"/>
<path d="M41.709 74.1887H41.9085C42.3339 74.8801 42.7727 75.3853 43.2248 75.7042C43.7566 76.0767 44.3949 76.2629 45.1394 76.2629C45.9372 76.2629 46.5954 75.9838 47.1139 75.4252C47.6458 74.8536 47.9117 74.1622 47.9117 73.351C47.9117 72.3406 47.3732 71.5558 46.2962 70.9972C45.2857 70.559 44.2819 70.1131 43.2846 69.6612C42.2076 69.0097 41.6692 68.0457 41.6692 66.7693C41.6692 65.546 42.1079 64.5887 42.9855 63.8973C43.7965 63.259 44.8336 62.9399 46.0968 62.9399C46.6286 62.9399 47.1472 63.0197 47.6524 63.1793C48.1577 63.3388 48.5899 63.5782 48.9488 63.8973C48.8558 64.11 48.776 64.3095 48.7095 64.4956C48.6962 64.5355 48.5965 64.8812 48.4103 65.5327H48.2109C47.9981 64.9743 47.6791 64.5488 47.2536 64.2562C46.8414 63.9504 46.3361 63.7975 45.7378 63.7975C45.0331 63.7975 44.4348 64.0169 43.9428 64.4557C43.4642 64.8812 43.2248 65.4396 43.2248 66.131C43.2248 67.1416 43.7633 67.926 44.8403 68.4845C45.8508 68.9366 46.8613 69.3819 47.8718 69.8208C48.9621 70.4591 49.5073 71.3766 49.5073 72.5732C49.5073 73.969 49.0286 75.0862 48.0713 75.9239C47.1671 76.7216 46.0037 77.1205 44.581 77.1205C44.0358 77.1205 43.4375 77.0142 42.786 76.8015C42.1345 76.5883 41.6492 76.3093 41.3301 75.9639C41.4364 75.6713 41.5096 75.4052 41.5494 75.1656C41.6027 74.913 41.6558 74.5875 41.709 74.1887ZM64.2262 69.9204C64.2262 69.0163 64.1398 68.2185 63.967 67.5271C63.7941 66.8224 63.4617 66.1576 62.9697 65.5327C62.4778 64.9078 61.8661 64.4291 61.1349 64.0967C60.4169 63.7643 59.6457 63.5981 58.8213 63.5981C57.0795 63.5981 55.7033 64.2097 54.6928 65.433C53.6956 66.643 53.197 68.2651 53.197 70.2993C53.197 72.2537 53.7288 73.7898 54.7925 74.9065C55.7898 75.9439 57.0728 76.462 58.6418 76.462C60.5166 76.462 61.9725 75.6513 63.0096 74.0289C63.8207 72.7659 64.2262 71.3966 64.2262 69.9204ZM58.582 77.1205C56.3615 77.1205 54.5798 76.482 53.2369 75.2055C51.9072 73.9161 51.2424 72.2008 51.2424 70.0602C51.2424 67.9194 51.9538 66.1842 53.3765 64.8546C54.746 63.5782 56.4944 62.9399 58.6219 62.9399C60.6961 62.9399 62.4246 63.4784 63.8074 64.5554C65.3896 65.792 66.1808 67.5271 66.1808 69.7609C66.1808 71.9682 65.4761 73.7499 64.0666 75.1062C62.6573 76.4491 60.8291 77.1205 58.582 77.1205ZM70.6487 63.2391V70.8779C70.6487 72.7125 70.9542 74.0359 71.5657 74.8466C72.2442 75.7507 73.4073 76.203 75.0562 76.203C76.5588 76.203 77.669 75.6913 78.3869 74.6674C79.0384 73.7364 79.3644 72.407 79.3644 70.6782V63.2391L79.9224 63.2989L80.4811 63.2391V71.1769C80.4811 73.1049 79.9559 74.5811 78.9056 75.6044C77.8682 76.6153 76.4525 77.1205 74.6573 77.1205C72.7958 77.1205 71.3531 76.6553 70.3292 75.7242C69.7709 75.219 69.3787 74.5276 69.1526 73.65C68.9798 72.9851 68.8934 72.1744 68.8934 71.2169V63.2391L69.7709 63.2989L70.6487 63.2391ZM86.0716 63.2391V75.884C86.4975 75.884 87.1889 75.8705 88.1459 75.844C89.1168 75.8176 89.6285 75.8041 89.6819 75.8041C90.0009 75.8041 90.3933 75.7776 90.8586 75.7242C91.1775 75.6713 91.4172 75.6379 91.5764 75.6244L91.5165 76.2229L91.5764 76.8215H84.317V63.2391L85.1946 63.2989L86.0716 63.2391ZM107.213 63.2391H107.632C107.911 65.8851 108.084 67.5072 108.15 68.1055C108.363 70.0602 108.536 71.5823 108.669 72.6726C108.815 73.7499 109.008 75.1526 109.247 76.8809L108.31 76.8215L107.372 76.8809C107.253 75.5515 107.14 74.2815 107.033 73.0714C106.941 71.8619 106.827 70.6653 106.694 69.4817C106.575 68.2983 106.462 67.3344 106.355 66.5897C105.544 68.0524 104.839 69.3288 104.241 70.4192C103.55 71.6956 102.971 72.7988 102.506 73.7299C102.001 74.7538 101.542 75.7307 101.13 76.6617H100.911L99.8133 74.4078C99.3351 73.4109 98.9092 72.5533 98.5374 71.8349C98.1649 71.1041 97.7062 70.2195 97.161 69.1825C96.6958 68.3183 96.237 67.454 95.7847 66.5897C95.5586 68.4911 95.3394 70.4127 95.1268 72.3536C94.9141 74.295 94.8073 75.8041 94.8073 76.8809L94.1094 76.8215L93.3915 76.8809C93.6706 75.1526 94.0365 72.6995 94.4883 69.5216C94.9406 66.3305 95.2131 64.2363 95.306 63.2391H95.8247C96.5161 64.5953 97.0812 65.7055 97.52 66.5698C98.0516 67.5936 98.6836 68.7703 99.4144 70.1002C100.213 71.5494 100.897 72.746 101.469 73.69C103.384 70.2065 105.298 66.7227 107.213 63.2391ZM117.239 62.9399L123.222 76.8809L122.185 76.8215L121.127 76.8809C120.649 75.5116 120.243 74.4078 119.911 73.5701C119.698 73.0385 119.406 72.3471 119.033 71.4959H113.967C113.197 73.4239 112.764 74.5211 112.671 74.7867C112.472 75.3189 112.246 76.0167 111.993 76.8809L111.255 76.8215L110.557 76.8809L116.78 62.9399H117.239ZM118.734 70.6583L116.52 65.5526L114.346 70.6583H118.734ZM130.062 64.1964V76.9208L129.185 76.8609L128.308 76.9208V64.1964C127.27 64.1964 126.532 64.2097 126.094 64.2363C125.655 64.2629 124.937 64.3294 123.939 64.4358L123.999 63.8374L123.939 63.2391H134.231L134.171 63.8374L134.231 64.4358C133.739 64.3826 133.114 64.3294 132.356 64.2762C131.611 64.223 130.847 64.1964 130.062 64.1964ZM138.153 64.1765V69.1825H141.244C141.497 69.1825 141.83 69.1692 142.242 69.1426C142.667 69.1027 142.927 69.0828 143.02 69.0828L142.96 69.6013L143.02 70.1595C142.781 70.1595 142.448 70.1466 142.022 70.1201C141.597 70.0802 141.338 70.0602 141.244 70.0602H138.153V75.884C138.579 75.884 139.27 75.8705 140.228 75.844C141.198 75.8176 141.71 75.8041 141.763 75.8041C142.136 75.8041 142.408 75.7976 142.581 75.7841C142.754 75.7577 143.092 75.7042 143.598 75.6244L143.538 76.2229L143.598 76.8215H136.398V63.2391H143.478L143.419 63.8374L143.478 64.4358C143.08 64.356 142.754 64.3028 142.501 64.2762C142.248 64.2363 141.976 64.2164 141.683 64.2164L139.689 64.1765H138.153ZM145.872 74.1887H146.071C146.497 74.8801 146.935 75.3853 147.387 75.7042C147.919 76.0767 148.557 76.2629 149.302 76.2629C150.1 76.2629 150.758 75.9838 151.276 75.4252C151.809 74.8536 152.074 74.1622 152.074 73.351C152.074 72.3406 151.536 71.5558 150.459 70.9972C149.448 70.559 148.445 70.1131 147.447 69.6612C146.37 69.0097 145.832 68.0457 145.832 66.7693C145.832 65.546 146.27 64.5887 147.148 63.8973C147.959 63.259 148.996 62.9399 150.26 62.9399C150.791 62.9399 151.31 63.0197 151.815 63.1793C152.32 63.3388 152.753 63.5782 153.112 63.8973C153.018 64.11 152.939 64.3095 152.872 64.4956C152.859 64.5355 152.759 64.8812 152.573 65.5327H152.374C152.161 64.9743 151.842 64.5488 151.416 64.2562C151.004 63.9504 150.499 63.7975 149.9 63.7975C149.196 63.7975 148.597 64.0169 148.106 64.4557C147.627 64.8812 147.387 65.4396 147.387 66.131C147.387 67.1416 147.926 67.926 149.003 68.4845C150.014 68.9366 151.024 69.3819 152.034 69.8208C153.125 70.4591 153.67 71.3766 153.67 72.5732C153.67 73.969 153.191 75.0862 152.234 75.9239C151.33 76.7216 150.166 77.1205 148.744 77.1205C148.198 77.1205 147.6 77.0142 146.949 76.8015C146.297 76.5883 145.812 76.3093 145.493 75.9639C145.599 75.6713 145.672 75.4052 145.712 75.1656C145.765 74.913 145.819 74.5875 145.872 74.1887ZM75.7141 87.7614H75.495C74.9499 87.1364 74.2784 86.6582 73.4807 86.3257C72.6959 85.9932 71.8718 85.827 71.0076 85.827C69.2656 85.827 67.8696 86.3786 66.8191 87.4823C65.782 88.5726 65.2635 90.1082 65.2635 92.0895C65.2635 94.1103 65.7688 95.6863 66.7793 96.8165C67.8031 97.9332 69.2856 98.4919 71.2268 98.4919C71.7854 98.4919 72.3305 98.4384 72.8622 98.3321C73.4073 98.2123 73.8995 98.0396 74.3383 97.8134V92.6881L75.216 92.7475L76.093 92.6881V98.3321C74.3249 98.9436 72.5167 99.2497 70.6682 99.2497C68.2485 99.2497 66.3937 98.5782 65.1039 97.2354C63.9073 95.9853 63.3089 94.3035 63.3089 92.1894C63.3089 89.929 64.0469 88.1602 65.5227 86.8838C66.9322 85.6742 68.787 85.0692 71.087 85.0692C72.3904 85.0692 73.5536 85.2219 74.5775 85.528C75.2025 85.7142 75.7341 85.9468 76.1729 86.2258C76.12 86.3721 76.0466 86.5912 75.9538 86.8838C75.8739 87.1763 75.794 87.4689 75.7141 87.7614ZM81.1055 86.106V91.5908C81.2254 91.5908 81.3716 91.5973 81.5444 91.6108C81.7176 91.6108 81.9103 91.6108 82.123 91.6108C82.4155 91.6108 82.6881 91.6043 82.9406 91.5908C83.1932 91.5779 83.4394 91.5444 83.6785 91.491C84.4233 91.3317 85.0348 91.0057 85.5136 90.514C85.9923 90.0088 86.2314 89.3838 86.2314 88.639C86.2314 87.2033 85.5001 86.3656 84.0374 86.126C83.7583 86.0861 83.4124 86.0661 83.0006 86.0661C82.7879 86.0661 82.4619 86.0731 82.0231 86.086C81.5843 86.0995 81.2788 86.106 81.1055 86.106ZM79.3509 99.01V85.3682H83.5786C85.0947 85.3682 86.2114 85.6208 86.9293 86.126C87.6477 86.6182 88.0066 87.376 88.0066 88.3999C88.0066 89.4767 87.5807 90.3543 86.7301 91.0322C86.0252 91.5908 85.0877 91.9767 83.9181 92.1894L88.0266 97.3946L88.9835 98.5118L89.3629 99.01L88.2058 98.9506L87.0691 99.01L85.8126 97.2753L83.4593 94.2236L81.8633 92.3486H81.1055V99.01L80.2279 98.9506L79.3509 99.01ZM103.57 92.0496C103.57 91.1455 103.483 90.3478 103.31 89.6564C103.138 88.9515 102.805 88.2865 102.313 87.6621C101.821 87.0371 101.21 86.5583 100.478 86.2258C99.7604 85.8934 98.9891 85.7271 98.1649 85.7271C96.4227 85.7271 95.0469 86.3386 94.036 87.5622C93.0391 88.7723 92.5404 90.3942 92.5404 92.4285C92.5404 94.3829 93.072 95.9189 94.1358 97.0357C95.1333 98.073 96.4162 98.5912 97.9852 98.5912C99.8597 98.5912 101.316 97.7805 102.353 96.1581C103.164 94.8951 103.57 93.5258 103.57 92.0496ZM97.9253 99.2497C95.7048 99.2497 93.9232 98.6111 92.5803 97.3347C91.2504 96.0452 90.586 94.33 90.586 92.1894C90.586 90.0488 91.2974 88.3135 92.7201 86.9836C94.0894 85.7072 95.8376 85.0692 97.9652 85.0692C100.039 85.0692 101.768 85.6073 103.151 86.6846C104.733 87.9212 105.524 89.6564 105.524 91.8898C105.524 94.0973 104.819 95.879 103.41 97.2354C102.001 98.5782 100.172 99.2497 97.9253 99.2497ZM109.992 85.3682V93.0071C109.992 94.8416 110.298 96.1651 110.909 96.9757C111.588 97.8798 112.751 98.3321 114.4 98.3321C115.902 98.3321 117.012 97.8204 117.73 96.7966C118.382 95.8655 118.708 94.5361 118.708 92.8074V85.3682L119.266 85.4281L119.825 85.3682V93.3061C119.825 95.234 119.299 96.7102 118.249 97.7335C117.212 98.7445 115.796 99.2497 114.001 99.2497C112.139 99.2497 110.697 98.7844 109.673 97.8534C109.115 97.3482 108.722 96.6568 108.496 95.7792C108.323 95.1142 108.237 94.3035 108.237 93.346V85.3682L109.115 85.4281L109.992 85.3682ZM125.216 92.7475V99.01L124.338 98.9506L123.461 99.01V85.3682H127.031C128.972 85.3682 130.315 85.6073 131.06 86.086C131.804 86.5648 132.176 87.416 132.176 88.639C132.176 89.8091 131.817 90.7202 131.1 91.3717C130.435 91.9697 129.371 92.4155 127.908 92.7075C127.735 92.7475 127.503 92.7744 127.21 92.7874C126.918 92.8009 126.751 92.8074 126.712 92.8074C126.406 92.8074 126.133 92.8009 125.894 92.7874C125.655 92.7744 125.429 92.761 125.216 92.7475ZM125.216 86.146V91.9697C125.256 91.9832 125.435 91.9897 125.755 91.9897C125.874 92.0032 126 92.0096 126.133 92.0096H126.532C126.639 92.0096 126.745 92.0096 126.851 92.0096C127.011 91.9832 127.124 91.9697 127.19 91.9697C128.174 91.8769 128.946 91.5379 129.504 90.9528C130.062 90.3678 130.342 89.63 130.342 88.7389C130.342 88.021 130.169 87.4424 129.823 87.0036C129.437 86.5119 129.005 86.2458 128.527 86.2059C128.048 86.153 127.669 86.126 127.39 86.126C127.124 86.126 126.911 86.126 126.751 86.126C126.459 86.126 126.186 86.133 125.934 86.146C125.681 86.146 125.442 86.146 125.216 86.146Z" fill="white"/>
</g>
<defs>
<clipPath id="clip0_155_142">
<rect width="163" height="86.8974" fill="white" transform="translate(16 16)"/>
</clipPath>
</defs>
</svg>
