<svg width="195" height="93" viewBox="0 0 195 93" fill="none" xmlns="http://www.w3.org/2000/svg">
<path d="M68.0747 61.7769C68.3224 61.8827 68.5611 62.0414 68.7789 62.2583L68.181 63.1209C68.0388 63.0041 67.9018 62.9143 67.7701 62.8612C67.6384 62.8035 67.4962 62.7766 67.3495 62.7766C67.0606 62.7766 66.8473 62.8986 66.7006 63.147C66.5584 63.3955 66.4829 63.8191 66.4829 64.4223C66.4829 64.9986 66.554 65.396 66.7006 65.6287C66.8473 65.8562 67.0606 65.9722 67.3345 65.9722C67.476 65.9722 67.6077 65.946 67.7297 65.8981C67.8464 65.851 67.9879 65.7657 68.1503 65.6497L68.7789 66.5388C68.3479 66.9511 67.836 67.1577 67.2485 67.1577C66.533 67.1577 65.9757 66.9197 65.5753 66.443C65.1698 65.967 64.9721 65.3002 64.9721 64.438C64.9721 63.8722 65.0633 63.3746 65.2509 62.9517C65.4334 62.5282 65.697 62.2002 66.0366 61.9727C66.3762 61.7452 66.777 61.6288 67.2327 61.6288C67.5418 61.6235 67.821 61.6764 68.0747 61.7769Z" fill="white"/>
<path d="M73.3793 64.8347H70.5421C70.5781 65.2897 70.6813 65.607 70.837 65.7874C70.9979 65.9618 71.2254 66.0516 71.5151 66.0516C71.7066 66.0516 71.8885 66.0149 72.0591 65.946C72.2298 65.872 72.4214 65.7605 72.6234 65.6123L73.2289 66.443C72.7065 66.9197 72.0951 67.1577 71.4013 67.1577C70.6349 67.1577 70.0497 66.9137 69.6516 66.4273C69.2527 65.9408 69.0506 65.2688 69.0506 64.4171C69.0506 63.5811 69.2422 62.9091 69.6254 62.3956C70.0085 61.8824 70.5474 61.6284 71.2464 61.6284C71.9192 61.6284 72.4423 61.8612 72.8255 62.3163C73.2087 62.7766 73.4003 63.4329 73.4003 64.2899C73.4055 64.4912 73.395 64.676 73.3793 64.8347ZM71.9604 63.8558C71.9604 63.4434 71.9087 63.1366 71.8002 62.93C71.6969 62.7236 71.5151 62.6231 71.2666 62.6231C71.0443 62.6231 70.8729 62.7184 70.7487 62.9143C70.6297 63.1044 70.5526 63.4434 70.5264 63.9299H71.9551V63.8558H71.9604Z" fill="white"/>
<path d="M79.4742 66.8854H78.0874L78.0089 65.0668C78.0036 64.9253 77.9984 64.712 77.9984 64.4389C77.9984 64.0078 78.0141 63.5827 78.0351 63.1621L77.3518 66.3787H76.1371L75.4539 63.1621C75.4853 63.6785 75.501 64.1141 75.501 64.4643C75.501 64.7277 75.4958 64.9253 75.4905 65.0615L75.4232 66.8809H74.0356L74.4218 61.9004H76.1581L76.7471 65.1326L77.3361 61.9004H79.0828L79.4742 66.8854Z" fill="white"/>
<path d="M84.4345 64.8347H81.5989C81.6355 65.2897 81.7388 65.607 81.8937 65.7874C82.0546 65.9618 82.2822 66.0516 82.5718 66.0516C82.7634 66.0516 82.9445 66.0149 83.1151 65.946C83.2858 65.872 83.4773 65.7605 83.6794 65.6123L84.2849 66.443C83.7617 66.9197 83.151 67.1577 82.458 67.1577C81.6924 67.1577 81.1072 66.9137 80.709 66.4273C80.3109 65.9408 80.1088 65.2688 80.1088 64.4171C80.1088 63.5811 80.3004 62.9091 80.6828 62.3956C81.066 61.8824 81.6041 61.6284 82.3031 61.6284C82.9752 61.6284 83.4983 61.8612 83.8807 62.3163C84.2639 62.7766 84.4555 63.4329 84.4555 64.2899C84.466 64.4912 84.4555 64.676 84.4345 64.8347ZM83.0171 63.8558C83.0171 63.4434 82.9654 63.1366 82.8562 62.93C82.7529 62.7236 82.5718 62.6231 82.3233 62.6231C82.101 62.6231 81.9304 62.7184 81.8062 62.9143C81.6872 63.1044 81.6094 63.4434 81.5832 63.9299H83.0118V63.8558H83.0171Z" fill="white"/>
<path d="M89.5356 66.8855H88.1615V65.0758C88.1615 64.3768 88.2341 63.7706 88.3756 63.2513L86.8549 66.8855H85.3663V61.8322H86.7508V63.6569C86.7508 64.3252 86.6827 64.9269 86.5465 65.477L88.0358 61.8322H89.5356V66.8855ZM86.3692 60.4699C86.108 60.2076 85.956 59.858 85.9201 59.416L86.7246 59.272C86.777 59.4725 86.8601 59.6216 86.9753 59.709C87.0899 59.7964 87.2523 59.8426 87.4611 59.8426C87.6594 59.8426 87.8218 59.7964 87.9415 59.709C88.062 59.6216 88.1406 59.4725 88.187 59.272L88.9975 59.416C88.9608 59.8529 88.8089 60.2025 88.5425 60.4647C88.2761 60.7268 87.9153 60.8605 87.4611 60.8605C86.9911 60.8605 86.6303 60.732 86.3692 60.4699Z" fill="white"/>
<path d="M93.2304 66.8854V64.8827H92.0944V66.8854H90.623V61.9004H92.0944V63.8222H93.2304V61.9004H94.7018V66.8854H93.2304Z" fill="white"/>
<path d="M99.1637 63.8918C99.5117 64.1799 99.6861 64.6058 99.6861 65.173C99.6861 65.7508 99.5064 66.1766 99.148 66.4603C98.7895 66.7387 98.2873 66.8809 97.6527 66.8809H95.8797V61.9004H97.3398V63.4555H97.5501C98.2776 63.4607 98.8202 63.6074 99.1637 63.8918ZM98.083 65.7508C98.1848 65.6341 98.2364 65.4312 98.2364 65.1528C98.2364 64.8744 98.1848 64.6716 98.083 64.5549C97.9805 64.4389 97.8009 64.3775 97.5449 64.3775H97.3346V65.9334H97.5906C97.8166 65.9282 97.9752 65.8675 98.083 65.7508ZM100.039 61.9055H101.499V66.8854H100.039V61.9055Z" fill="white"/>
<path d="M106.847 66.8855H105.503V65.0758C105.503 64.3768 105.575 63.7706 105.713 63.2513L104.226 66.8855H102.769V61.8322H104.123V63.6569C104.123 64.3252 104.057 64.9269 103.924 65.477L105.381 61.8322H106.847V66.8855ZM103.751 60.4699C103.495 60.2076 103.346 59.858 103.311 59.416L104.098 59.272C104.149 59.4725 104.231 59.6216 104.343 59.709C104.456 59.7964 104.614 59.8426 104.819 59.8426C105.012 59.8426 105.171 59.7964 105.289 59.709C105.406 59.6216 105.483 59.4725 105.529 59.272L106.321 59.416C106.28 59.8529 106.137 60.2025 105.877 60.4647C105.616 60.7268 105.263 60.8605 104.819 60.8605C104.358 60.8605 104.006 60.732 103.751 60.4699Z" fill="white"/>
<path d="M113.965 65.946C114.011 66.0306 114.082 66.0942 114.189 66.1414L113.889 67.1308C113.599 67.1046 113.365 67.0357 113.182 66.9249C112.998 66.8134 112.856 66.6391 112.759 66.4063C112.454 66.9085 112.001 67.1577 111.41 67.1577C110.958 67.1577 110.601 67.0095 110.331 66.7132C110.067 66.4168 109.929 66.0254 109.929 65.5329C109.929 64.9671 110.113 64.5331 110.479 64.2315C110.845 63.9299 111.38 63.7817 112.077 63.7817H112.474V63.5385C112.474 63.2316 112.418 63.0198 112.317 62.8986C112.21 62.7766 112.021 62.7184 111.752 62.7184C111.446 62.7184 111.049 62.808 110.576 62.9832L110.245 62.0147C110.52 61.893 110.815 61.7977 111.13 61.7289C111.446 61.6655 111.736 61.6284 112.006 61.6284C112.652 61.6284 113.131 61.7766 113.436 62.0781C113.742 62.3797 113.9 62.835 113.9 63.4487V65.5546C113.9 65.729 113.92 65.8615 113.965 65.946ZM112.21 65.9565C112.321 65.872 112.408 65.75 112.479 65.5965V64.6281H112.215C111.919 64.6281 111.701 64.6917 111.563 64.819C111.425 64.9462 111.354 65.1415 111.354 65.4117C111.354 65.634 111.395 65.8031 111.481 65.9139C111.568 66.0306 111.685 66.0838 111.843 66.0838C111.981 66.0838 112.097 66.0411 112.21 65.9565Z" fill="white"/>
<path d="M119.353 61.9004L118.172 64.2076L119.447 66.8854H117.934L116.966 64.7352H116.572V66.8854H115.096V61.9004H116.572V63.8529H116.996L117.971 61.9004H119.353Z" fill="white"/>
<path d="M123.706 61.9004L123.528 62.9705H122.355V66.8854H120.907V62.9705H119.628V61.9004H123.706Z" fill="white"/>
<path d="M128.505 66.8854H127.131V65.1004C127.131 64.4104 127.204 63.8125 127.345 63.2998L125.83 66.8854H124.341V61.9004H125.726V63.701C125.726 64.3603 125.658 64.9538 125.522 65.4963L127.011 61.9004H128.51V66.8854H128.505Z" fill="white"/>
<path d="M133.677 65.3406C133.677 65.8592 133.49 66.2477 133.117 66.5021C132.743 66.7558 132.224 66.8853 131.565 66.8853H129.598V61.8306C130.361 61.6959 130.989 61.6284 131.482 61.6284C132.109 61.6284 132.603 61.7476 132.956 61.9913C133.308 62.235 133.49 62.572 133.49 63.0079C133.49 63.2878 133.402 63.5205 133.231 63.7076C133.059 63.894 132.8 64.0182 132.463 64.0908C133.272 64.1896 133.677 64.6042 133.677 65.3406ZM131.072 62.5876V63.7959H131.487C131.669 63.7959 131.803 63.7488 131.902 63.6552C131.996 63.5624 132.047 63.4068 132.047 63.1785C132.047 62.9502 132.001 62.7901 131.907 62.6964C131.814 62.6083 131.663 62.5617 131.461 62.5617C131.394 62.5668 131.264 62.572 131.072 62.5876ZM132.017 65.7709C132.125 65.6669 132.178 65.491 132.178 65.2313C132.178 64.9881 132.125 64.8167 132.027 64.7187C131.928 64.6199 131.767 64.5683 131.544 64.5683H131.072V65.9214H131.534C131.746 65.9266 131.907 65.8742 132.017 65.7709Z" fill="white"/>
<path d="M138.748 66.8854H137.404V65.1004C137.404 64.4104 137.475 63.8125 137.613 63.2998L136.131 66.8854H134.674V61.9004H136.029V63.701C136.029 64.3603 135.962 64.9538 135.829 65.4963L137.286 61.9004H138.753V66.8854H138.748Z" fill="white"/>
<path d="M143.557 61.9004L143.374 62.9705H142.201V66.8854H140.753V62.9705H139.478V61.9004H143.557Z" fill="white"/>
<path d="M148.355 66.8854H146.981V65.1004C146.981 64.4104 147.054 63.8125 147.196 63.2998L145.68 66.8854H144.191V61.9004H145.575V63.701C145.575 64.3603 145.508 64.9538 145.372 65.4963L146.861 61.9004H148.36V66.8854H148.355Z" fill="white"/>
<path d="M152.167 63.3511H149.358V64.529H152.167V63.3511Z" fill="white"/>
<path d="M155.795 66.8854V62.9705H154.703V66.8854H153.255V61.9004H157.243V66.8854H155.795Z" fill="white"/>
<path d="M162.276 65.946C162.322 66.0306 162.393 66.0942 162.5 66.1414L162.2 67.1308C161.91 67.1046 161.675 67.0357 161.493 66.9249C161.31 66.8134 161.167 66.6391 161.07 66.4063C160.765 66.9085 160.312 67.1577 159.721 67.1577C159.269 67.1577 158.912 67.0095 158.642 66.7132C158.378 66.4168 158.24 66.0254 158.24 65.5329C158.24 64.9671 158.424 64.5331 158.79 64.2315C159.156 63.9299 159.691 63.7817 160.388 63.7817H160.785V63.5385C160.785 63.2316 160.73 63.0198 160.628 62.8986C160.521 62.7766 160.332 62.7184 160.063 62.7184C159.757 62.7184 159.36 62.808 158.887 62.9832L158.556 62.0147C158.831 61.893 159.126 61.7977 159.442 61.7289C159.757 61.6655 160.047 61.6284 160.317 61.6284C160.963 61.6284 161.442 61.7766 161.747 62.0781C162.053 62.3797 162.211 62.835 162.211 63.4487V65.5546C162.211 65.729 162.231 65.8615 162.276 65.946ZM160.521 65.9565C160.632 65.872 160.719 65.75 160.79 65.5965V64.6281H160.526C160.23 64.6281 160.012 64.6917 159.874 64.819C159.736 64.9462 159.665 65.1415 159.665 65.4117C159.665 65.634 159.706 65.8031 159.793 65.9139C159.879 66.0306 159.996 66.0838 160.154 66.0838C160.286 66.0838 160.408 66.0411 160.521 65.9565Z" fill="white"/>
<path d="M167.42 62.3284C167.708 62.7983 167.848 63.4674 167.848 64.3393C167.848 64.8826 167.77 65.3578 167.618 65.7754C167.467 66.1938 167.254 66.5118 166.977 66.7416C166.701 66.9714 166.378 67.0866 166.003 67.0866C165.56 67.0866 165.189 66.9092 164.892 66.5538V68.9045L163.406 69.0609V61.7956H164.725L164.793 62.3545C165.143 61.8688 165.586 61.6285 166.133 61.6285C166.706 61.6233 167.134 61.8583 167.42 62.3284ZM166.316 64.355C166.316 63.7278 166.258 63.2997 166.149 63.0647C166.034 62.8297 165.872 62.7097 165.653 62.7097C165.361 62.7097 165.111 62.8979 164.903 63.2788V65.5509C165.09 65.833 165.309 65.9737 165.57 65.9737C166.065 65.979 166.316 65.4416 166.316 64.355Z" fill="white"/>
<path d="M173.012 61.9004L171.831 64.2076L173.105 66.8854H171.592L170.624 64.7352H170.23V66.8854H168.755V61.9004H170.23V63.8529H170.65L171.629 61.9004H173.012Z" fill="white"/>
<path d="M65.0552 53.1416L65.081 52.3002V51.4588L65.1274 51.1491C65.1892 50.8962 65.3594 50.7878 65.6325 50.8395L66.7822 51.0562C67.1167 51.1337 67.4213 51.1543 67.6892 51.1027C67.8951 51.0408 68.2146 51.0459 68.6479 51.1285C69.2354 51.2266 69.7975 51.1285 70.3228 50.8395C70.596 50.7104 70.7352 50.5194 70.7562 50.2665C70.7711 50.2355 70.7659 50.122 70.73 49.931C70.6319 49.5955 70.4411 49.3477 70.1582 49.1877C69.8536 48.9967 69.5909 48.8677 69.3694 48.8057C68.746 48.5321 68.1271 48.2947 67.5036 48.0882L66.9775 47.8972C66.4522 47.7062 65.9882 47.4326 65.5913 47.0816C64.9212 46.4571 64.4985 45.6776 64.3234 44.733C64.2615 44.2375 64.2357 43.742 64.2511 43.2464C64.2821 42.7974 64.3955 42.3276 64.5862 41.8321C64.8079 41.2436 65.0964 40.7068 65.4469 40.2268C65.8438 39.6383 66.4108 39.2048 67.1482 38.9312L67.5807 38.766L67.9879 38.5957C68.3538 38.4821 68.7303 38.3892 69.1119 38.3066C69.8124 38.1775 70.5084 38.1311 71.194 38.1621C71.7508 38.193 72.3173 38.2447 72.8951 38.3066L73.0133 38.3324L73.1316 38.3789C73.3224 38.4408 73.4047 38.5853 73.3688 38.8125L73.297 39.2667L73.1989 39.7468L72.8636 41.3779L72.8172 41.5224C72.7401 41.7599 72.5852 41.8682 72.3637 41.8321C71.5959 41.7547 70.8796 41.7031 70.2091 41.6876C69.5857 41.6566 69.0858 41.7754 68.6996 42.0489C68.5858 42.1109 68.4773 42.1986 68.3643 42.3122C68.2356 42.5186 68.1787 42.7044 68.1997 42.8645C68.2969 43.3755 68.5604 43.742 68.9877 43.9691C69.4674 44.2272 69.9516 44.4492 70.4463 44.6401L70.8535 44.8311L71.9566 45.3112C72.5441 45.5848 73.1832 46.008 73.874 46.581C74.2399 46.8391 74.5288 47.2417 74.7346 47.8043L74.9981 48.4754C75.1111 48.7489 75.1732 48.9709 75.1881 49.1464C75.1881 49.1774 75.1986 49.2032 75.2143 49.2187V49.2651C75.2143 50.3026 75.0699 51.1595 74.781 51.8305C74.5595 52.357 74.2609 52.8061 73.8949 53.1726L73.606 53.4616L73.3172 53.7507C73.1114 53.9417 72.8846 54.1017 72.6474 54.2307C72.0546 54.5662 71.3945 54.8398 70.6634 55.0463C70.1372 55.2063 69.5236 55.2837 68.8178 55.2837C68.514 55.2527 68.2041 55.2012 67.8846 55.1392C67.6631 55.0617 67.3435 54.9895 66.9259 54.9224L66.4469 54.8244L65.9675 54.7056L65.3696 54.4889C65.1635 54.3907 65.0604 54.2359 65.0604 54.0088V53.1416H65.0552Z" fill="white"/>
<path d="M82.0053 54.1913C81.6857 54.1604 81.4477 54.1296 81.2883 54.0937L80.9785 53.996L80.6694 53.8984C80.4314 53.7853 80.2353 53.6826 80.0961 53.5901L79.689 53.3537L79.57 53.2561L79.4719 53.1842L79.2811 53.066C78.5642 52.5111 77.9864 51.7711 77.5583 50.8463C77.3982 50.5277 77.2949 50.1321 77.2485 49.6541L77.1766 48.8423L77.0786 48.0304L77.0322 47.4601L76.9596 46.8897C76.9289 46.2372 76.9289 45.5846 76.9596 44.9321C76.9596 44.8858 76.9753 44.4645 77.006 43.668L77.104 42.7123C77.1197 42.5838 77.1452 42.404 77.1766 42.1625L77.2021 41.6127L77.2283 41.4483L77.2537 41.2787C77.2694 41.1041 77.2844 40.9447 77.3001 40.8009C77.3308 40.436 77.357 40.174 77.3727 40.0147L77.3982 39.7064L77.4446 39.3981C77.491 39.0795 77.6661 38.9459 77.9707 38.9922C78.1465 39.0076 78.4354 38.9922 78.8321 38.9459L79.3844 38.8997H79.7661L80.1275 38.874C80.3648 38.874 80.6275 38.8586 80.9164 38.8277C81.1386 38.8277 81.2621 38.9305 81.2778 39.1361V39.3056L81.2524 39.4958C81.1903 40.2254 81.1386 40.9653 81.1079 41.7155C81.0765 42.1317 81.0608 42.4965 81.0608 42.8151L81.0353 43.3649V43.9147C81.0196 44.1511 81.0099 44.6803 81.0099 45.487V46.5146C81.0099 46.8178 81.0249 47.157 81.0563 47.5423L81.0817 47.8506V48.1383C81.1124 48.4261 81.1439 48.6316 81.1798 48.7601C81.2569 49.0787 81.417 49.3253 81.6595 49.5C82.0105 49.7723 82.3563 49.9522 82.6915 50.0498C83.2483 50.2399 83.7131 50.1063 84.0791 49.6439C84.3837 49.3253 84.6157 48.9194 84.7758 48.4261C85.0288 47.7119 85.1882 46.9463 85.2555 46.1344C85.2712 45.9905 85.2967 45.7439 85.3274 45.3945L85.3536 45.0143L85.4 44.6083V44.3463L85.3745 44.1099C85.3895 43.8581 85.4 43.2827 85.4 42.3938L85.3019 40.0558V39.6037L85.2765 39.172C85.2915 38.9665 85.4052 38.8381 85.6118 38.7918C85.7098 38.761 85.828 38.7352 85.9725 38.7198L86.0915 38.6941H86.1895C86.2509 38.6941 86.3025 38.6839 86.334 38.6685L87.0509 38.5246L87.7679 38.3807C88.0208 38.3499 88.2476 38.3345 88.4384 38.3345L88.7483 38.3601H89.0836C89.2587 38.3293 89.3724 38.4218 89.4188 38.6479L89.445 38.6941V38.7661C89.4136 39.655 89.3986 40.1586 89.3986 40.2716C89.3829 40.3487 89.3724 40.544 89.3724 40.842L89.347 42.0803C89.3313 42.5273 89.3051 42.9384 89.2744 43.3186L89.0836 45.9905C88.9855 47.1981 88.8104 48.3131 88.5574 49.3305C88.4594 49.6799 88.3509 49.9881 88.2222 50.2605C87.9176 50.9284 87.6646 51.4474 87.4536 51.8123C87.247 52.2593 87.0045 52.5984 86.7359 52.8399L86.3751 53.1482L86.0137 53.4102C85.7764 53.6004 85.5032 53.7545 85.1987 53.8624C84.6725 54.0679 84.1359 54.181 83.5941 54.1964H82.0053V54.1913Z" fill="white"/>
<path d="M101.767 43.763C101.798 44.4006 101.679 45.1618 101.406 46.0565C101.292 46.473 101.086 46.8278 100.781 47.1312L99.8934 48.1597L99.6299 48.4476L99.3927 48.7356C99.2176 48.9413 99.0731 49.1007 98.9594 49.2139C98.8307 49.3424 98.6862 49.4503 98.5261 49.5481C97.6796 49.9955 96.8332 50.2885 95.9868 50.4325C95.7802 50.4788 95.6665 50.6074 95.6515 50.8131V54.1092C95.6515 54.3304 95.5377 54.4435 95.3162 54.4435C95.0782 54.4281 94.7789 54.4538 94.4279 54.5155L93.9945 54.608L93.5612 54.68L92.9879 54.7058C92.7507 54.7366 92.5651 54.7624 92.4364 54.7778L92.2919 54.8035H92.1468C92.0697 54.8189 92.0128 54.8292 91.9821 54.8292C91.7239 54.8446 91.5585 54.7264 91.4762 54.4692C91.4605 54.3921 91.45 54.2481 91.45 54.0372C91.45 53.5128 91.4605 53.1682 91.4762 53.0088V52.9368L91.45 52.8391C91.435 52.7774 91.435 52.7208 91.45 52.6694L91.4762 52.0472V49.2293C91.4455 48.6585 91.4455 48.1853 91.4762 47.8203C91.4762 47.0541 91.5016 46.293 91.5488 45.5268C91.5638 44.7606 91.6102 43.9842 91.6932 43.1871L91.7913 41.9221L91.8631 40.6828C91.8946 40.4771 91.92 40.2045 91.9357 39.8703L91.9612 39.6081V39.3921C91.9612 39.2481 91.9716 39.1453 91.9873 39.0835C92.018 38.7493 92.1782 38.5436 92.4671 38.4613L92.6115 38.4356L92.7559 38.4099C92.8854 38.3945 93.0037 38.3791 93.1174 38.3637L93.4063 38.3174L93.7416 38.2711C94.4129 38.2557 95.0011 38.2145 95.5168 38.1528H95.6358L95.7802 38.1785L96.7606 38.3225C97.179 38.3996 97.494 38.4716 97.7208 38.5385L98.0097 38.6105L98.3195 38.6825C98.4333 38.7133 98.541 38.7545 98.6548 38.8007L98.7738 38.8727L98.892 38.919C99.3568 39.1555 99.7796 39.4435 100.162 39.7777C100.353 39.9681 100.472 40.1069 100.523 40.184C101.163 41.0119 101.561 41.9427 101.72 42.9762C101.752 43.1357 101.767 43.2642 101.767 43.3568V43.763ZM95.4397 44.1641V44.8326L95.5377 46.1953C95.5684 46.4524 95.6148 46.617 95.6822 46.6993C95.76 46.7815 95.9456 46.8021 96.2345 46.7713C96.8437 46.6941 97.3444 46.4062 97.7462 45.9125C97.9992 45.6091 98.1803 45.2697 98.2731 44.884C98.3711 44.2978 98.2626 43.6602 97.9633 42.9711C97.8188 42.6523 97.6018 42.4158 97.3182 42.2563C96.8848 42.0198 96.3168 41.8964 95.6148 41.8964C95.4397 41.8964 95.3416 41.9992 95.3259 42.2049L95.3521 42.4929V42.7808C95.3828 42.9248 95.409 43.146 95.424 43.4494V43.8093L95.4704 44.1436L95.4397 44.1641Z" fill="white"/>
<path d="M103.334 52.4968L103.406 49.58C103.406 48.9936 103.437 48.474 103.504 48.0265V47.5276C103.504 47.3989 103.52 46.8125 103.552 45.7579V45.5213C103.552 45.4236 103.561 45.331 103.577 45.2332L103.624 44.7291L103.67 43.6797L103.696 43.2733V42.8669C103.727 42.548 103.754 42.2856 103.769 42.0799V41.7455L103.795 41.4111C103.795 41.1899 103.81 40.9635 103.841 40.7424L103.914 39.4769L103.961 39.2866C104.023 38.9831 104.199 38.8339 104.489 38.8339C104.743 38.803 104.976 38.7876 105.189 38.7876H105.91C106.184 38.7876 106.464 38.8133 106.749 38.8596H107.06L107.589 38.8853L108.096 38.9111L108.553 38.8853C108.745 38.8699 108.9 38.8699 109.009 38.8853H109.709L110.382 38.9111C110.574 38.9419 110.688 39.0448 110.72 39.2197V39.3175L110.745 40.5366V41.7764C110.745 42.0644 110.61 42.229 110.336 42.2805C109.807 42.3577 109.367 42.3782 109.014 42.3268C108.708 42.3113 108.278 42.3679 107.713 42.4914C107.552 42.5377 107.475 42.6509 107.475 42.8258L107.501 43.1344V43.4688L107.573 44.1838L107.62 44.3535C107.666 44.5902 107.806 44.6879 108.029 44.6417C108.413 44.5645 108.869 44.5696 109.402 44.6673H109.595L109.786 44.6931C109.885 44.6931 110.009 44.7085 110.17 44.7394C110.408 44.7857 110.548 44.9452 110.58 45.2178L110.652 46.0769L110.699 46.9154V47.2498C110.699 47.4864 110.585 47.6253 110.362 47.6561L110.144 47.6819L109.905 47.7281L109.45 47.7539C109.304 47.7693 109.097 47.795 108.822 47.8259L108.195 47.8516C107.873 47.8516 107.666 47.8619 107.568 47.8774C107.278 47.8928 107.133 48.0523 107.133 48.3557L107.231 49.863C107.231 50.0225 107.242 50.1099 107.257 50.1253C107.288 50.3619 107.407 50.4854 107.62 50.4854C108.356 50.5163 108.776 50.5318 108.869 50.5318L109.978 50.578C110.3 50.578 110.465 50.7427 110.486 51.0821V51.1079L110.533 53.6645V53.8086C110.533 54.1275 110.377 54.287 110.077 54.287L109.066 54.2612C108.745 54.2612 108.408 54.2458 108.055 54.215L105.816 53.9989H105.288L103.821 53.9526C103.546 53.9218 103.401 53.7931 103.385 53.572L103.313 52.5226H103.334V52.4968Z" fill="white"/>
<path d="M116.84 52.0556C116.824 52.7391 116.783 53.2941 116.72 53.7258L116.528 55.2315C116.528 55.2469 116.518 55.2881 116.502 55.3497V55.4217L116.476 55.5398C116.414 55.73 116.273 55.8277 116.066 55.8277L115.053 55.7557L114.596 55.73L114.159 55.7043C113.707 55.6735 113.421 55.6632 113.291 55.6786C112.954 55.6786 112.802 55.5193 112.834 55.2007C112.834 55.026 112.85 54.029 112.881 52.2149V51.9272C112.881 51.7987 112.891 51.6805 112.906 51.5674V50.9251L113.005 49.3988V48.7307C113.037 47.9342 113.052 47.482 113.052 47.369C113.068 46.6854 113.114 46.0071 113.198 45.3391L113.462 42.4972L113.489 42.3071L113.515 42.0913C113.53 41.9165 113.546 41.7418 113.561 41.5671C113.593 41.1509 113.619 40.8425 113.634 40.6369L113.733 39.8507L113.78 39.6863L113.805 39.64L113.831 39.5938C113.894 39.4344 114.024 39.3573 114.216 39.3573C114.232 39.3728 114.304 39.383 114.435 39.383C114.725 39.4293 115.167 39.4087 115.759 39.3111C117.048 39.1672 118.061 39.1209 118.799 39.1672L118.944 39.1929L119.111 39.2186C119.256 39.234 119.386 39.2494 119.495 39.2648L120.17 39.4088L120.29 39.4344L120.389 39.4601C121.163 39.604 121.823 39.9432 122.368 40.4879C123.143 41.2382 123.631 41.9114 123.839 42.5178C123.901 42.6616 123.959 42.8621 124.005 43.1139L124.052 43.4222L124.125 43.71C124.171 43.967 124.197 44.2187 124.197 44.4757C124.197 44.8097 124.166 45.0821 124.099 45.2877C124.052 45.7656 123.927 46.2179 123.735 46.6495C123.496 47.1736 123.132 47.6515 122.649 48.0832C122.55 48.1809 122.462 48.2528 122.384 48.2991L122.093 48.5149L121.901 48.6588C121.755 48.8027 121.75 48.9466 121.875 49.0905L122.405 49.7842L122.914 50.478L123.709 51.5778C124.254 52.328 124.665 52.9601 124.941 53.4894L124.987 53.5871L125.034 53.7052C125.112 53.9262 125.05 54.065 124.842 54.1112C124.743 54.1421 124.649 54.1575 124.551 54.1575L124.379 54.1831H124.234L123.605 54.2294L123.002 54.2551C122.457 54.3014 122.047 54.3579 121.771 54.4247C121.563 54.471 121.371 54.399 121.194 54.2089C120.373 53.3198 119.875 52.7597 119.698 52.5387L118.082 50.6528L117.671 50.2005C117.526 50.0258 117.391 49.8819 117.261 49.7688L117.188 49.6969L117.142 49.6712L117.094 49.6455C116.996 49.7432 116.944 49.8819 116.923 50.0772C116.871 50.5757 116.84 51.2437 116.84 52.0556ZM117.152 46.7369C117.152 46.9938 117.271 47.0863 117.516 47.0246L118.118 46.855L118.721 46.6649C119.22 46.5056 119.614 46.1562 119.9 45.6166C120.14 45.1541 120.238 44.7018 120.191 44.2547C120.145 43.746 119.932 43.3554 119.563 43.0831C119.225 42.8621 118.861 42.7593 118.477 42.7747C118.123 42.7901 117.811 42.8312 117.536 42.8929C117.246 42.9546 117.1 43.1293 117.1 43.4171C117.131 44.8149 117.147 45.6114 117.147 45.8016V46.7369H117.152Z" fill="white"/>
<path d="M132.287 54.2798C131.999 54.2644 131.458 54.2952 130.658 54.3775H129.798L129.56 54.3518H127.381C127.237 54.3518 127.159 54.3415 127.144 54.3261C126.969 54.2952 126.865 54.2079 126.835 54.064L126.788 53.7299V51.9619C126.788 50.9906 126.819 50.1786 126.886 49.5259C126.886 49.4643 126.901 49.0633 126.932 48.3336L126.958 47.3777C126.989 46.9665 127.015 46.6478 127.03 46.4217L127.103 45.656L127.175 44.9159C127.221 44.3095 127.273 43.8109 127.319 43.4101L127.484 41.9556L127.556 41.2156L127.654 40.4498C127.685 40.2134 127.731 39.9872 127.798 39.7816C127.876 39.5453 128.051 39.4219 128.324 39.4219H129.257L130.36 39.5195H130.432C130.798 39.6018 130.952 39.8382 130.885 40.234L130.839 40.568L130.792 40.8764C130.777 41.1128 130.751 41.3286 130.72 41.5188L130.695 42.2126V42.9064C130.664 43.6362 130.649 44.0268 130.649 44.0731L130.576 45.6971L130.504 46.9613C130.488 47.059 130.478 47.28 130.478 47.6295V49.7778C130.478 49.9524 130.488 50.0553 130.504 50.0861C130.535 50.3071 130.664 50.3944 130.885 50.3482C131.092 50.2865 131.324 50.2351 131.581 50.2043C131.803 50.1734 131.978 50.158 132.106 50.158H132.633C132.71 50.1426 132.88 50.1324 133.138 50.1324C133.967 50.1324 134.504 50.1426 134.74 50.158C134.947 50.1734 135.065 50.3019 135.101 50.5384V51.1808L135.127 51.8951V52.6095C135.127 52.7072 135.111 53.0104 135.081 53.5192C135.065 53.8532 134.879 54.0537 134.529 54.1154C134.179 54.177 133.828 54.2285 133.477 54.2593C133.333 54.2747 133.158 54.2747 132.952 54.2593H132.287V54.2798Z" fill="white"/>
<path d="M140.849 39.1651L141.755 39.0669L142.64 38.9946L142.738 38.9688H142.836C143.253 38.9842 143.752 39.0411 144.344 39.1341C144.457 39.1651 144.581 39.1909 144.725 39.2065C144.915 39.2375 145.044 39.2633 145.106 39.2788C145.394 39.3409 145.559 39.5372 145.61 39.8525C145.672 40.1109 145.744 40.4779 145.826 40.9586L145.991 42.0646L146.228 43.5273L146.444 44.9693L146.562 46.003L146.681 47.0367C146.696 47.1969 146.722 47.4708 146.753 47.8533V48.2874L146.799 48.6958C146.897 49.7346 146.949 50.6184 146.964 51.3368C146.979 51.5436 146.99 51.7141 146.99 51.8434C147.005 52.0501 147.005 52.2516 146.99 52.4429L146.943 53.0165L146.917 53.5696C146.917 53.828 146.783 53.952 146.511 53.952C146.063 53.9675 145.61 53.9417 145.147 53.8797L144.071 53.6884L143.906 53.642C143.67 53.5644 143.546 53.4042 143.546 53.1613L143.5 51.9829L143.428 50.975L143.33 49.9672V49.6313C143.314 49.3263 143.155 49.1764 142.851 49.1764C142.486 49.1764 142.244 49.1867 142.136 49.2023C142.023 49.2178 141.817 49.2436 141.513 49.2746L141.205 49.3005L140.896 49.3469C140.72 49.3624 140.592 49.4814 140.515 49.7087L140.325 50.8613L140.298 51.0061L140.273 51.1766C140.257 51.3213 140.242 51.466 140.227 51.6108L140.108 52.355C140.062 52.6135 140.021 52.8615 139.99 53.0992C139.944 53.4197 139.892 53.7556 139.846 54.1071C139.763 54.3294 139.609 54.474 139.367 54.5412L138.219 54.7583H138.147L138.049 54.7842C137.252 54.8151 136.824 54.8306 136.758 54.8306C136.5 54.8306 136.382 54.7015 136.398 54.4482C136.428 54.1432 136.475 53.8177 136.541 53.4662L136.758 52.2671L137.067 50.3445L137.329 48.7629C137.617 47.1969 137.792 46.2511 137.854 45.9306L138.162 44.2044C138.291 43.5325 138.41 42.964 138.523 42.4988L138.832 41.1809L138.951 40.5089L139.069 39.837V39.7388C139.115 39.4649 139.29 39.2995 139.593 39.2323L139.902 39.1858L140.211 39.16L140.402 39.1341H140.592C140.705 39.1341 140.783 39.1238 140.829 39.1083V39.1651H140.849ZM143.171 45.4758C143.171 45.4293 143.155 45.1657 143.124 44.6851L142.933 42.6229L142.862 42.0491C142.815 41.8734 142.718 41.7752 142.573 41.7597L142.404 41.7338H142.239C142.033 41.7183 141.889 41.7338 141.806 41.7804C141.745 41.8424 141.693 41.9871 141.663 42.2145L141.282 44.3025L141.21 44.7109L141.137 45.0933L141.019 45.8376C140.958 46.2356 141.132 46.4061 141.544 46.3389C141.688 46.3079 141.848 46.282 142.023 46.2666L142.167 46.2407H142.285C142.383 46.2407 142.445 46.2304 142.475 46.2149L142.856 46.1684C143.062 46.1529 143.165 46.0392 143.165 45.8324V45.4758H143.171Z" fill="white"/>
<path d="M153.189 46.6048L153.215 46.9136V47.4388L153.189 47.6756L153.117 49.1582L153.019 49.8996C153.004 50.0592 152.978 50.3217 152.947 50.6873L152.921 51.0939L152.874 51.5007C152.828 51.8044 152.802 52.1699 152.802 52.6024V53.704C152.802 53.9254 152.792 54.0799 152.777 54.1571C152.777 54.4145 152.658 54.538 152.416 54.538H151.509C151.252 54.5226 151 54.5226 150.741 54.538C150.36 54.5844 149.882 54.5535 149.304 54.4402C149.098 54.4248 148.995 54.2961 148.995 54.0593C148.995 53.9821 149.01 53.6989 149.042 53.2201V52.6487L149.067 52.0978C149.067 51.7632 149.083 51.3874 149.114 50.9755C149.114 50.3526 149.144 49.8223 149.212 49.3744L149.284 48.4684L149.31 47.7734C149.34 47.4851 149.366 47.2534 149.382 47.0784C149.397 46.4246 149.438 45.884 149.5 45.4516L149.572 44.8286L149.619 44.2315V43.9432L149.644 43.6806C149.644 43.5055 149.66 43.3202 149.691 43.1298L149.835 41.3382C149.896 41.019 149.938 40.6381 149.953 40.1901C150.015 39.84 150.201 39.6547 150.505 39.6393C151.113 39.6084 151.54 39.6136 151.798 39.6651L152.37 39.7371L152.942 39.8092L153.374 39.835C153.549 39.8504 153.694 39.8761 153.807 39.907C153.823 39.907 153.849 39.9173 153.879 39.9328H153.951L154.024 39.9585C154.296 40.0048 154.477 40.1747 154.575 40.463L154.667 40.6998L154.739 40.9624C154.817 41.1374 154.915 41.3228 155.028 41.5132L155.173 41.7758L155.291 42.0126C155.801 42.8878 156.311 43.9277 156.821 45.1221L157.011 45.5751L157.228 46.0539C157.29 46.2135 157.372 46.3886 157.465 46.579L157.563 46.7952L157.661 47.0114C157.692 47.0733 157.738 47.1453 157.806 47.2277C157.852 47.1968 157.893 47.1556 157.924 47.1093L157.949 46.9651L157.996 46.5842V45.4825C158.027 44.3344 158.042 43.7218 158.042 43.6394L158.088 42.4708L158.186 40.5351C158.217 39.8967 158.233 39.5466 158.233 39.4849C158.264 39.1966 158.418 39.0524 158.686 39.0524L158.974 39.0782C159.073 39.109 159.16 39.109 159.237 39.0782L159.644 39.0524L160.051 39.0267L160.432 38.9804C160.577 38.9649 160.706 38.9649 160.814 38.9804C161.051 39.0267 161.18 39.1553 161.195 39.3613C161.211 39.4385 161.221 39.5775 161.221 39.768C161.252 39.9585 161.278 40.2468 161.293 40.6277L161.319 40.916V41.1529C161.319 41.3124 161.329 41.4308 161.345 41.5132L161.416 42.8775L161.463 44.9573V45.2663C161.463 45.4258 161.468 45.5855 161.489 45.745V46.5327L161.515 47.5829V48.6331C161.515 48.7464 161.53 49.4517 161.561 50.7593L161.659 52.5302L161.684 53.0554V53.7504L161.659 53.8688C161.613 54.0747 161.489 54.188 161.298 54.2034L159.887 54.3939H159.505L159.124 54.4196L157.713 54.5175H157.687L157.661 54.5432C157.228 54.5587 156.945 54.3991 156.8 54.0645L156.275 52.7516L155.75 51.4389L154.889 49.359L154.554 48.6434L154.266 47.9279C154.008 47.274 153.797 46.7952 153.622 46.4915C153.539 46.301 153.431 46.1672 153.287 46.0848L153.189 46.6048Z" fill="white"/>
<path d="M163.872 49.6736C163.856 49.064 163.856 48.5629 163.872 48.16L163.897 47.4161L163.944 46.6723L163.991 46.1453L164.016 45.6391C164.016 45.2568 164.032 44.9211 164.063 44.6318C164.079 43.8312 164.12 43.1286 164.182 42.5191C164.182 42.2814 164.192 42.1213 164.208 42.0386C164.208 41.9095 164.223 41.269 164.254 40.117C164.254 39.7657 164.28 39.4144 164.327 39.0632C164.342 38.8255 164.471 38.6964 164.709 38.6809C165.299 38.6034 165.79 38.5621 166.173 38.5621L167.3 38.5156C167.491 38.5156 167.693 38.526 167.9 38.5414C168.044 38.5414 168.21 38.5518 168.406 38.5673C169.513 38.6292 170.438 38.9134 171.194 39.4093C171.56 39.6469 171.969 39.993 172.419 40.4424L172.589 40.6336L172.708 40.8247C173.174 41.77 173.478 42.5862 173.618 43.2732C173.763 43.9912 173.778 44.6421 173.665 45.2155L173.473 46.6309C173.458 46.8375 173.391 47.101 173.282 47.4213L173.163 47.8294L173.018 48.2375L172.9 48.6198L172.755 49.002C172.465 49.7355 172.108 50.4329 171.674 51.0889C171.612 51.2026 171.514 51.3214 171.384 51.4506L171.075 51.7605L170.883 51.9516L170.712 52.1686C170.568 52.3287 170.449 52.4475 170.35 52.5302L169.461 53.3205L168.546 54.0902C168.432 54.2039 168.256 54.2968 168.019 54.3795L167.729 54.4777L167.44 54.5758L166.597 54.7927L165.753 55.0303C165.655 55.0614 165.578 55.0769 165.516 55.0769H164.891L164.555 55.1027H164.389C164.114 55.0717 163.954 54.9374 163.908 54.6946C163.877 54.3123 163.861 54.1057 163.861 54.0696V49.6736H163.872ZM167.615 43.8931C167.615 43.9706 167.6 44.5079 167.569 45.4996C167.569 45.8664 167.559 46.1092 167.543 46.2177C167.481 46.6671 167.45 47.2508 167.45 47.9689V48.3511C167.45 48.4493 167.434 48.9916 167.403 49.9835C167.403 50.2417 167.517 50.2934 167.739 50.1488L167.931 50.0041L168.122 49.8388L169.177 48.6611C169.415 48.3718 169.611 48.1186 169.751 47.8913C170.278 46.8996 170.542 45.9181 170.542 44.9418C170.542 44.0791 170.236 43.3662 169.632 42.8083C169.28 42.457 168.711 42.2401 167.925 42.1626C167.749 42.1316 167.636 42.2246 167.589 42.4519V42.5242C167.559 42.5552 167.559 42.5862 167.589 42.6224L167.615 43.2216V43.8931Z" fill="white"/>
<path d="M43.9571 43.6292V37.9908H44.2978V43.655L50.7183 52.2699L51.2138 63.8561C55.0228 60.173 56.9427 54.8853 56.344 49.5926C56.1531 47.9161 54.3828 44.7074 54.3828 44.7074L50.837 38.8162L46.4552 35.9222C46.4552 35.9222 43.1675 34.7048 41.423 34.483C39.4049 34.225 37.3198 34.3282 35.2656 34.8235C34.2902 35.0608 33.3199 35.3857 32.365 35.8035C28.0606 37.6968 23.3123 45.182 23.3123 45.182L22.0994 51.8159C22.0994 51.8159 22.6052 56.2678 23.5549 58.419C24.7987 61.2511 26.7187 63.5777 29.036 65.2953C30.4967 66.3789 32.1225 67.2194 33.836 67.7919L35.4463 50.4696L43.9571 43.6292Z" fill="white"/>
<path d="M35.296 34.8808C35.2908 34.8808 35.1874 33.5464 35.1822 33.5515C35.1098 33.5669 35.0374 33.5669 34.9599 33.5567L35.1822 33.5515L37.7108 33.062V30.5889H36.7749L36.8835 26.936L32.7207 22.4741L33.0207 22.2319L33.0155 21.3922L32.1726 20.8408L31.428 21.4488L31.547 22.0826L31.8882 22.4999L27.2394 27.039V30.5889H26.1587V33.062L28.827 33.7112L25.3624 61.6005C26.4069 63.0433 27.648 64.2901 29.039 65.3154C30.4662 66.3714 32.0485 67.1961 33.724 67.7679L38.9622 68.6952C39.2311 68.7004 39.5 68.7004 39.7741 68.6899L35.296 34.8808Z" fill="white"/>
<path d="M28.8878 33.2583H35.1288L35.6953 38.0435L28.0816 39.875L28.8878 33.2583Z" fill="#E96032"/>
<path d="M27.5423 44.1116L36.33 43.1382L37.3269 50.7519L26.9033 49.3736L27.5423 44.1116Z" fill="#E96032"/>
<path d="M37.8147 54.3774L26.1779 55.2963L25.2718 61.3879C26.3315 62.916 27.6165 64.2377 29.0603 65.3116C30.6525 66.5038 32.4392 67.3966 34.3284 67.9699L38.7824 68.6929C39.0845 68.7026 39.3814 68.6981 39.6834 68.6929L37.8147 54.3774Z" fill="#E96032"/>
<path d="M46.1852 67.2452C48.0984 66.4063 49.7751 65.253 51.1947 63.8782L50.701 52.314L44.2976 43.7154V38.062H43.9581V43.6897L35.4872 50.5222L33.8825 67.8118C37.7708 69.1147 42.1374 69.0271 46.1852 67.2452Z" fill="#F0A569"/>
<path d="M45.0654 53.2899H52.7396L54.0048 51.804L53.4137 50.4515L51.9359 49.0169H51.1374L50.6759 49.9544L49.3485 48.3047H48.2284L47.4713 48.5609C47.4713 48.5609 45.4491 48.5711 45.8277 49.4984L46.2062 50.4258L43.3387 49.2781L42.4936 50.3131L42.8306 51.5478L43.2506 52.8595L45.0654 53.2899Z" fill="#2D52A4"/>
<path d="M42.7653 56.9155H45.1219V60.2915L42.7653 60.7225V56.9155Z" fill="white"/>
<path d="M47.2972 38.7876H43.9436V41.4161L47.2972 41.0798L46.3508 39.9466L47.2972 38.7876Z" fill="#E96032"/>
<path d="M32.0696 35.0713H31.4352V36.3402H32.0696V35.0713Z" fill="#2D52A4"/>
<path d="M32.0696 45.9478H31.4352V47.3074H32.0696V45.9478Z" fill="#2D52A4"/>
<path d="M27.2656 31.7175V27.0161L36.8734 26.9136L36.7293 31.7175H27.2656Z" fill="#E96032"/>
<path d="M27.2656 27.0042L32.3424 22.019L36.8734 26.9011L27.2656 27.0042Z" fill="#E96032"/>
<path d="M31.5619 22.0433L31.4352 21.427L32.2008 20.8408L33.0614 21.3769L33.0666 22.1936L32.2377 22.8349L31.5619 22.0433Z" fill="#E96032"/>
<path d="M36.0579 31.3549H28.0816L28.8986 26.9136L35.4451 27.1586L36.0579 31.3549Z" fill="white"/>
<path d="M37.6895 32.98L35.1698 33.458L28.8371 33.6208L26.1783 32.98V30.5391H37.6895V32.98Z" fill="#E96032"/>
<path d="M31.1509 26.5499L30.5402 28.3977L30.4384 29.8343L30.6013 31.12L32.698 31.5364L33.7921 31.1616L33.5478 26.5499L31.2832 26.2793L31.1509 26.5499Z" fill="#E96032"/>
<path d="M36.2358 29.3359L27.8799 29.6218L27.8975 30.137L36.2534 29.8511L36.2358 29.3359Z" fill="#E96032"/>
</svg>
