<svg width="64" height="64" viewBox="0 0 64 64" fill="none" xmlns="http://www.w3.org/2000/svg">
<path d="M34.0881 35.0425C31.2694 36.6698 28.9324 35.6899 28.4391 32.8842C25.769 33.8585 23.7464 32.3231 23.7464 29.0734C25.4551 28.8021 29.7469 21.4703 29.4935 19.1209C32.3054 17.4924 34.6424 18.4734 35.1364 21.2791C37.8126 20.3042 39.8352 21.8403 39.8352 25.0899C39.8352 28.7528 37.2631 33.2111 34.0881 35.0425ZM42.0359 14.4776L41.9009 14.3975L37.6701 11.9679C36.7205 11.3328 35.605 10.9998 34.3656 10.9998C32.885 10.9998 31.233 11.4801 29.4935 12.4859C23.1428 16.1487 18 25.4538 18 33.266V35.0425C18 42.8553 28.5007 51.3464 28.5007 51.3464L32.7747 53.763L32.7925 53.7698C32.6513 53.6027 30.2211 50.8161 30.5116 50.2303C33.3228 44.4585 40.9815 28.1485 40.9815 21.7724V19.9959C40.9815 18.5659 40.8088 17.2956 40.4943 16.1789L40.9877 16.4626L42.0359 14.4776Z" fill="#2D50A2"/>
<path d="M28.439 32.8845C28.3712 32.5268 28.3403 32.1377 28.3403 31.7246C28.3403 28.0624 30.9117 23.6041 34.088 21.7727C34.4457 21.5692 34.7965 21.4027 35.1363 21.2794C37.8125 20.3044 39.8351 21.8405 39.8351 25.0902C39.8351 28.753 37.2631 33.2113 34.088 35.0427C31.2694 36.67 28.9323 35.6902 28.439 32.8845ZM42.0359 14.4778L41.9008 14.3977C39.8468 13.2446 37.1027 13.3987 34.088 15.1376C29.5434 17.7645 25.6092 23.2834 23.7464 29.0737C23.007 31.3669 22.5933 33.6984 22.5933 35.9183V37.7004C22.5933 43.7188 29.4077 50.6985 32.5464 53.5912C32.6204 53.6584 32.6944 53.7145 32.7746 53.7632L32.7924 53.77C33.5515 54.2387 34.5807 53.9735 34.9883 53.1349C37.6947 47.5907 45.5815 30.8989 45.5815 24.4298V22.6483C45.5815 18.6334 44.2249 15.7913 42.0359 14.4778Z" fill="#2D50A2"/>
<path d="M35.9719 19.7902C35.5619 19.9395 35.137 20.1411 34.7047 20.3871C30.8662 22.6009 27.7583 27.9897 27.7583 32.4171C27.7583 32.9166 27.7953 33.3859 27.8767 33.8181C28.4736 37.2096 31.2984 38.3948 34.7047 36.4271C38.5433 34.2134 41.6518 28.8246 41.6518 24.3971C41.6518 20.4692 39.2068 18.6131 35.9719 19.7902Z" fill="#2D50A2"/>
<path d="M40.4856 24.312L34.9988 22.8481L29.5126 30.6473L30.9641 29.8093V34.394L34.1491 32.5552V29.9937L35.8467 29.0139V31.5754L39.0353 29.7341V25.1488L40.4856 24.312Z" fill="#2D50A2"/>
<g style="mix-blend-mode:luminosity">
<path d="M34.0881 35.0425C31.2694 36.6698 28.9324 35.6899 28.4391 32.8842C25.769 33.8585 23.7464 32.3231 23.7464 29.0734C25.4551 28.8021 29.7469 21.4703 29.4935 19.1209C32.3054 17.4924 34.6424 18.4734 35.1364 21.2791C37.8126 20.3042 39.8352 21.8403 39.8352 25.0899C39.8352 28.7528 37.2631 33.2111 34.0881 35.0425ZM42.0359 14.4776L41.9009 14.3975L37.6701 11.9679C36.7205 11.3328 35.605 10.9998 34.3656 10.9998C32.885 10.9998 31.233 11.4801 29.4935 12.4859C23.1428 16.1487 18 25.4538 18 33.266V35.0425C18 42.8553 28.5007 51.3464 28.5007 51.3464L32.7747 53.763L32.7925 53.7698C32.6513 53.6027 30.2211 50.8161 30.5116 50.2303C33.3228 44.4585 40.9815 28.1485 40.9815 21.7724V19.9959C40.9815 18.5659 40.8088 17.2956 40.4943 16.1789L40.9877 16.4626L42.0359 14.4776Z" fill="#26B6A6"/>
<path d="M28.439 32.8845C28.3712 32.5268 28.3403 32.1377 28.3403 31.7246C28.3403 28.0624 30.9117 23.6041 34.088 21.7727C34.4457 21.5692 34.7965 21.4027 35.1363 21.2794C37.8125 20.3044 39.8351 21.8405 39.8351 25.0902C39.8351 28.753 37.2631 33.2113 34.088 35.0427C31.2694 36.67 28.9323 35.6902 28.439 32.8845ZM42.0359 14.4778L41.9008 14.3977C39.8468 13.2446 37.1027 13.3987 34.088 15.1376C29.5434 17.7645 25.6092 23.2834 23.7464 29.0737C23.007 31.3669 22.5933 33.6984 22.5933 35.9183V37.7004C22.5933 43.7188 29.4077 50.6985 32.5464 53.5912C32.6204 53.6584 32.6944 53.7145 32.7746 53.7632L32.7924 53.77C33.5515 54.2387 34.5807 53.9735 34.9883 53.1349C37.6947 47.5907 45.5815 30.8989 45.5815 24.4298V22.6483C45.5815 18.6334 44.2249 15.7913 42.0359 14.4778Z" fill="#5CC8BC"/>
<path d="M35.9719 19.7902C35.5619 19.9395 35.137 20.1411 34.7047 20.3871C30.8662 22.6009 27.7583 27.9897 27.7583 32.4171C27.7583 32.9166 27.7953 33.3859 27.8767 33.8181C28.4736 37.2096 31.2984 38.3948 34.7047 36.4271C38.5433 34.2134 41.6518 28.8246 41.6518 24.3971C41.6518 20.4692 39.2068 18.6131 35.9719 19.7902Z" fill="white"/>
<path d="M40.4856 24.312L34.9988 22.8481L29.5126 30.6473L30.9641 29.8093V34.394L34.1491 32.5552V29.9937L35.8467 29.0139V31.5754L39.0353 29.7341V25.1488L40.4856 24.312Z" fill="#294C9E"/>
</g>
</svg>
