<svg width="64" height="64" viewBox="0 0 64 64" fill="none" xmlns="http://www.w3.org/2000/svg">
<path d="M12.1918 32.8633C12.1918 32.8633 10.1955 33.4591 10.0192 34.0342C9.8276 34.6593 11.1119 38.9934 11.9784 39.0653C12.8448 39.1372 14.1618 38.323 14.1618 38.323L12.1918 32.8633Z" fill="#2D50A2"/>
<path d="M18.3099 39.9615C18.3099 39.9615 20.9211 51.4102 21.1538 52.1501C21.3864 52.8899 27.5521 52.4738 27.4358 51.9188C27.3195 51.3639 25.8652 50.4391 25.9234 49.6991C25.9817 48.9593 26.6214 47.757 26.5051 47.1559C26.3888 46.5547 24.7019 45.9998 24.8765 45.0288C25.0509 44.0576 25.9317 43.3276 25.9898 42.634C26.048 41.9404 25.5167 39.8929 25.5167 39.8929L18.3099 39.9615Z" fill="#2D50A2"/>
<path d="M23.8929 52.5413C24.0062 52.4799 24.0654 52.4148 24.0542 52.3478C23.9584 51.773 22.7611 50.8152 22.809 50.049C22.8568 49.2827 23.3837 48.0376 23.2879 47.415C23.1922 46.7923 21.8033 46.2176 21.9469 45.212C22.0907 44.2063 22.8158 43.4502 22.8637 42.7318C22.8866 42.3869 22.7978 41.7188 22.6992 41.1173C22.9212 41.112 23.1399 41.1061 23.3533 41.0995C23.491 41.7104 23.6966 42.3314 23.9113 42.344C23.953 42.3464 24.0132 42.3476 24.0878 42.3476C24.5021 42.3476 25.3629 42.3102 25.9797 42.2393C25.9891 42.3409 25.9943 42.4343 25.9943 42.516C25.9943 42.5587 25.9928 42.5981 25.9897 42.6341C25.9888 42.6455 25.9877 42.657 25.9862 42.6684C25.9848 42.6798 25.9833 42.6913 25.9814 42.7027C25.8742 43.376 25.0452 44.0897 24.8765 45.0288C24.8679 45.0762 24.8638 45.1226 24.8638 45.1681C24.8631 45.7935 25.6258 46.2414 26.1136 46.6519C25.286 46.6957 24.4595 46.7594 23.6349 46.843C23.5242 46.8541 23.4289 46.9297 23.4289 47.049C23.4289 47.1469 23.5152 47.2557 23.6197 47.2557C23.6247 47.2557 23.6298 47.2554 23.6349 47.255C24.4918 47.1681 25.3506 47.1027 26.2107 47.0588C26.3049 47.0539 26.3656 46.9983 26.3928 46.9294C26.4506 47.0048 26.4904 47.08 26.5051 47.156C26.5147 47.2058 26.5191 47.2599 26.5191 47.3175C26.5191 47.33 26.519 47.3427 26.5186 47.3557C26.5182 47.3669 26.5177 47.3783 26.5171 47.3898C26.4797 48.0321 25.9748 49.0459 25.9234 49.6992C25.9223 49.7138 25.9218 49.7282 25.9218 49.7428C25.9215 50.4751 27.3216 51.3748 27.4358 51.9189C27.4369 51.9241 27.4374 51.9295 27.4374 51.9348C27.437 52.0121 27.3156 52.0866 27.1067 52.1554C27.0467 52.175 26.9794 52.1944 26.9058 52.2131C26.234 52.384 25.0282 52.5102 23.8929 52.5413ZM25.3285 42.6954C25.3232 42.6954 25.3177 42.6957 25.312 42.6963C24.6074 42.7756 23.903 42.855 23.1984 42.9344C23.0878 42.9469 22.9924 43.0202 22.9924 43.1404C22.9924 43.237 23.0779 43.3473 23.1819 43.3473C23.1872 43.3473 23.1927 43.347 23.1984 43.3464C23.903 43.267 24.6074 43.1876 25.312 43.1084C25.4226 43.0959 25.518 43.0225 25.518 42.9024C25.518 42.8057 25.4325 42.6954 25.3285 42.6954Z" fill="#2D50A2"/>
<path d="M13.4391 38.0135C13.4391 38.0135 9.11556 30.8783 16.5675 27.9533L20.21 39.9418C20.21 39.9418 15.1679 40.9714 13.4391 38.0135Z" fill="#2D50A2"/>
<path d="M16.8276 27.7945C16.8276 27.7945 22.9434 24.1785 25.195 22.7464C29.3987 20.0721 31.8336 16.8684 31.8336 16.8684L40.3393 40.9333C40.3393 40.9333 32.2485 40.311 27.8919 40.0343C23.5353 39.7577 19.6628 39.9652 19.6628 39.9652C19.6628 39.9652 16.551 37.0608 16.136 32.4277C15.7212 27.7945 16.8276 27.7945 16.8276 27.7945Z" fill="#2D50A2"/>
<path d="M38.5657 40.7983C38.4998 40.7934 38.4319 40.7882 38.3631 40.7831C38.3265 40.7802 38.2898 40.7775 38.2523 40.7747C37.8398 40.7435 37.3804 40.7091 36.8876 40.6723C36.8763 40.6713 36.8645 40.6705 36.8532 40.6697C36.795 40.6653 36.7367 40.661 36.6775 40.6565C36.6561 40.655 36.6345 40.6533 36.6129 40.6517C36.118 40.6149 35.593 40.5759 35.051 40.5359C35.0229 40.5339 34.9943 40.5318 34.966 40.5297C34.8649 40.5223 34.764 40.5149 34.662 40.5074C34.6504 40.5065 34.6392 40.5057 34.6276 40.5049C34.2365 40.4762 33.8379 40.4471 33.4373 40.418C33.4086 40.4159 33.3798 40.4138 33.3512 40.4118C32.8184 40.3732 32.2824 40.3346 31.7525 40.297C31.7217 40.2948 31.6906 40.2926 31.6598 40.2904C31.0597 40.2479 30.4694 40.2066 29.9037 40.1679C29.8724 40.1657 29.8412 40.1635 29.8102 40.1614C29.123 40.1145 28.474 40.0713 27.8919 40.0343C27.8396 40.031 27.7874 40.0278 27.7351 40.0245C27.7049 40.0227 27.675 40.021 27.6447 40.0192C27.1291 39.9884 26.621 39.9642 26.1266 39.9457C25.94 39.9283 25.7177 39.9143 25.4638 39.9033C25.0702 39.8816 24.561 39.8597 24.1067 39.8597C23.947 39.8597 23.7941 39.8625 23.6552 39.8688C23.5426 39.8684 23.4275 39.8682 23.3105 39.8682C22.2129 39.8682 20.9364 39.8851 19.6034 39.9072C19.1708 39.4774 16.517 36.681 16.1361 32.4276C16.0707 31.697 16.0431 31.0815 16.043 30.5631C16.0427 27.7945 16.8276 27.7945 16.8276 27.7945C16.8276 27.7945 22.9435 24.1785 25.195 22.7463C28.8395 20.4279 31.1545 17.7115 31.706 17.0297C30.648 20.362 30.5052 24.5456 31.5252 28.8688C32.7595 34.0998 35.4244 38.3863 38.5657 40.7983ZM30.4466 19.6768C30.4352 19.6768 30.4227 19.6789 30.4089 19.6831C29.9224 19.8318 28.148 22.2635 24.2799 24.3192C21.6547 25.7145 17.0051 28.4398 17.0051 28.4398C17.0051 28.4398 16.3956 32.4027 17.6697 34.0342C17.8462 34.2601 18.2344 34.3575 18.772 34.3575C22.1169 34.3576 31.2517 30.5914 31.2517 30.5914C31.2517 30.5914 29.1099 25.3379 30.2197 21.3186C30.5424 20.1501 30.6174 19.6768 30.4466 19.6768Z" fill="#2D50A2"/>
<path d="M52.3063 23.9657C54.4331 32.9797 51.5052 41.3846 45.7666 42.7385C40.0281 44.0925 33.652 37.8827 31.5252 28.8687C29.3984 19.8546 32.3263 11.4497 38.0649 10.0957C43.8034 8.74185 50.1795 14.9515 52.3063 23.9657Z" fill="#2D50A2"/>
<path d="M44.5502 40.0955C42.6696 40.0955 40.7326 38.997 39.0394 37.1209C39.72 37.8627 40.4555 38.4941 41.2366 38.9866C42.8635 36.3938 43.5993 33.2908 43.4762 30.2216C44.2554 29.8535 44.7951 29.5868 44.8532 29.5287C44.8659 29.5159 44.8718 29.4835 44.8718 29.4337C44.8713 28.5625 43.0317 22.3603 43.0317 22.3603L41.2328 22.6562C40.8233 21.9867 40.3588 21.3511 39.8399 20.7581C38.6037 19.3459 36.6545 17.8892 35.245 17.8892C35.0882 17.8892 34.938 17.9071 34.7961 17.9453C34.2223 19.7697 33.9964 21.7843 34.0667 23.8348L34.0573 23.8364C33.8318 18.2426 35.8252 13.7066 39.2431 12.9002C39.5992 12.8161 39.9603 12.7751 40.3229 12.7751C44.3246 12.7751 48.5824 17.7494 50.1996 24.6037C51.9634 32.0789 49.9175 38.959 45.63 39.9705C45.2739 40.0545 44.9128 40.0955 44.5502 40.0955ZM49.5305 30.4846C48.3059 30.4846 45.2116 31.3871 45.2116 31.3871C45.2116 31.3871 43.7097 36.4435 43.9336 36.8798C44 37.009 44.3538 37.0697 44.8391 37.0697C45.9907 37.0697 47.8833 36.7286 48.4395 36.155C49.2299 35.3397 50.0863 31.3212 50.0205 30.6624C50.0077 30.5358 49.8221 30.4846 49.5305 30.4846ZM40.6513 13.6873C40.4302 13.6873 38.6163 17.3584 38.769 17.889C38.9226 18.4229 41.3287 21.368 41.9158 21.368C42.5029 21.368 47.5845 21.137 47.5845 20.5017C47.5845 19.8665 45.0438 14.6117 40.655 13.6876C40.6538 13.6873 40.6526 13.6873 40.6513 13.6873Z" fill="#2D50A2"/>
<path d="M39.0394 37.1208C36.5634 34.4223 34.8144 30.2626 34.25 26.0174C34.3522 26.7564 34.4915 27.5068 34.6701 28.2633C34.6735 28.2779 34.6769 28.2926 34.6805 28.3072C35.122 30.1635 35.7573 31.881 36.5285 33.3981C36.5289 33.398 36.5293 33.3979 36.5296 33.3976C37.2604 34.8362 38.1135 36.0949 39.0394 37.1208Z" fill="#2D50A2"/>
<path d="M41.2366 38.9866C40.4555 38.4941 39.72 37.8627 39.0394 37.1209C38.1134 36.095 37.2604 34.8362 36.5295 33.3976C36.6307 33.3522 37.1281 33.1286 37.8334 32.8098C37.834 32.8095 37.8344 32.8093 37.8349 32.8091C37.8364 32.8084 37.8378 32.8078 37.8393 32.8072C38.1203 32.6801 38.4341 32.5381 38.769 32.3863C40.2716 31.7049 42.1969 30.8261 43.4762 30.2216C43.5992 33.2908 42.8634 36.3938 41.2366 38.9866ZM34.0666 23.8348C33.9963 21.7843 34.2222 19.7697 34.7961 17.9453C34.938 17.9071 35.0882 17.8892 35.245 17.8892C36.6545 17.8892 38.6037 19.3459 39.8399 20.7581C40.3588 21.3511 40.8232 21.9867 41.2327 22.6562L36.0483 23.5088L34.0666 23.8348Z" fill="#2D50A2"/>
<path d="M16.5404 39.9641C16.5404 39.9641 18.6902 51.821 18.8818 52.5873C19.0733 53.3535 24.1499 52.9225 24.0541 52.3478C23.9583 51.773 22.761 50.8152 22.8089 50.049C22.8567 49.2827 23.3836 48.0376 23.2878 47.415C23.1921 46.7923 21.8032 46.2176 21.9468 45.212C22.0906 44.2063 22.8157 43.4502 22.8636 42.7318C22.9114 42.0135 22.474 39.8929 22.474 39.8929L16.5404 39.9641Z" fill="#2D50A2"/>
<path d="M34.6701 28.2634C35.112 30.1365 35.7512 31.8691 36.5285 33.3982C36.9479 33.2098 44.6245 29.7573 44.8532 29.5287C45.0881 29.2937 43.0317 22.3603 43.0317 22.3603L34.0542 23.8369C34.1119 25.2588 34.3128 26.7489 34.6701 28.2634Z" fill="#2D50A2"/>
<path d="M36.5285 33.3982C36.627 33.354 37.1255 33.1299 37.8335 32.8098C37.1282 33.1286 36.6308 33.3522 36.5296 33.3976C36.5293 33.3979 36.5289 33.3981 36.5285 33.3982ZM37.835 32.8091C37.8365 32.8084 37.8379 32.8077 37.8394 32.8072C37.8379 32.8078 37.8365 32.8084 37.835 32.8091ZM38.7691 32.3863C36.3445 28.6803 36.0752 24.6242 36.0484 23.5088L43.0317 22.3603C43.0317 22.3603 44.8713 28.5625 44.8719 29.4337C44.8719 29.4835 44.866 29.5159 44.8532 29.5287C44.6997 29.6822 41.1868 31.2899 38.7691 32.3863Z" fill="#2D50A2"/>
<path d="M45.966 25.4432C46.4325 27.4203 45.9006 29.2376 44.7782 29.5025C43.6557 29.7673 42.3676 28.3794 41.9011 26.4023C41.4347 24.4253 41.9665 22.6079 43.0889 22.3432C44.2116 22.0783 45.4997 23.4662 45.966 25.4432Z" fill="#2D50A2"/>
<path d="M23.1818 43.3474C23.0779 43.3474 22.9923 43.2371 22.9923 43.1405C22.9923 43.0203 23.0877 42.947 23.1983 42.9345C23.9029 42.8551 24.6074 42.7757 25.312 42.6964C25.3176 42.6958 25.3231 42.6955 25.3285 42.6955C25.4324 42.6955 25.518 42.8058 25.518 42.9025C25.518 43.0226 25.4225 43.096 25.312 43.1085C24.6074 43.1877 23.9029 43.2671 23.1983 43.3464C23.1927 43.3471 23.1872 43.3474 23.1818 43.3474Z" fill="#2D50A2"/>
<path d="M26.3927 46.9294C26.328 46.8454 26.241 46.7611 26.1409 46.6753L26.1556 46.6497C26.174 46.6488 26.1922 46.6478 26.2106 46.6468C26.2149 46.6467 26.2191 46.6466 26.2233 46.6466C26.3842 46.6466 26.4402 46.8085 26.3927 46.9294Z" fill="#2D50A2"/>
<path d="M26.1409 46.6753C26.1318 46.6675 26.1227 46.6598 26.1135 46.6519C26.1275 46.6513 26.1415 46.6504 26.1555 46.6498L26.1409 46.6753Z" fill="#2D50A2"/>
<path d="M23.6197 47.2556C23.5152 47.2556 23.429 47.1469 23.429 47.0489C23.429 46.9296 23.5243 46.8541 23.6349 46.843C24.4596 46.7593 25.286 46.6956 26.1136 46.6518C26.2251 46.7457 26.3224 46.8376 26.3928 46.9293C26.3656 46.9983 26.3049 47.0539 26.2107 47.0587C25.3507 47.1026 24.4918 47.168 23.6349 47.2549C23.6299 47.2553 23.6248 47.2556 23.6197 47.2556Z" fill="#2D50A2"/>
<path d="M23.1983 39.915C23.1007 39.9344 23.4884 42.3191 23.9113 42.344C24.3343 42.3689 26.6717 42.2663 26.6836 42.0589C26.7113 41.5766 26.1276 39.9458 26.1276 39.9458C26.1276 39.9458 23.9032 39.7747 23.1983 39.915Z" fill="#2D50A2"/>
<path d="M10.2492 35.5994C10.2108 35.5731 10.1808 35.5336 10.165 35.485C10.1488 35.4349 10.1573 35.3802 10.1822 35.3341C10.2031 35.4204 10.2254 35.5089 10.2492 35.5994Z" fill="#2D50A2"/>
<path d="M10.3657 35.6353C10.3231 35.6353 10.2829 35.6225 10.2492 35.5994C10.2254 35.5089 10.2031 35.4205 10.1823 35.3341C10.209 35.2845 10.2547 35.2448 10.3089 35.2315C10.5467 35.173 10.7845 35.1145 11.0224 35.056C11.0402 35.0516 11.0579 35.0496 11.0751 35.0496C11.1664 35.0496 11.2462 35.1086 11.2758 35.1999C11.3094 35.3038 11.2366 35.4275 11.1319 35.4533C10.8941 35.5118 10.6562 35.5703 10.4184 35.6288C10.4006 35.6332 10.383 35.6353 10.3657 35.6353Z" fill="#2D50A2"/>
<path d="M10.4925 36.4294C10.4391 36.4054 10.3966 36.3586 10.3768 36.2973C10.3593 36.2431 10.3707 36.1834 10.4006 36.135C10.4301 36.2327 10.4607 36.331 10.4925 36.4294Z" fill="#2D50A2"/>
<path d="M10.5775 36.4478C10.5475 36.4478 10.5187 36.4413 10.4925 36.4295C10.4608 36.331 10.4301 36.2327 10.4006 36.1351C10.428 36.091 10.4707 36.0562 10.5207 36.044C10.7585 35.9855 10.9963 35.927 11.2342 35.8685C11.252 35.8641 11.2696 35.8619 11.2869 35.8619C11.3783 35.8619 11.458 35.921 11.4875 36.0123C11.5212 36.1163 11.4484 36.24 11.3437 36.2657C11.1059 36.3243 10.868 36.3828 10.6302 36.4413C10.6124 36.4456 10.5948 36.4478 10.5775 36.4478Z" fill="#2D50A2"/>
<path d="M10.7704 37.2185C10.7359 37.1923 10.7091 37.1551 10.6945 37.1099C10.6838 37.0772 10.6838 37.0426 10.692 37.0096C10.7177 37.0798 10.7439 37.1494 10.7704 37.2185Z" fill="#2D50A2"/>
<path d="M10.895 37.2603C10.8488 37.2603 10.8056 37.2451 10.7703 37.2185C10.7438 37.1494 10.7176 37.0798 10.6919 37.0096C10.7097 36.9378 10.7665 36.8742 10.8382 36.8565C11.076 36.798 11.3138 36.7395 11.5517 36.681C11.5695 36.6766 11.5871 36.6746 11.6043 36.6746C11.6957 36.6746 11.7755 36.7335 11.8051 36.8249C11.8387 36.9288 11.7659 37.0525 11.6612 37.0783C11.4234 37.1368 11.1855 37.1953 10.9477 37.2538C10.9299 37.2582 10.9123 37.2603 10.895 37.2603Z" fill="#2D50A2"/>
<path d="M11.1544 38.0999C11.1068 38.0744 11.0694 38.0304 11.0511 37.9739C11.0411 37.9428 11.0405 37.9098 11.0476 37.8782C11.0829 37.9544 11.1186 38.0287 11.1544 38.0999Z" fill="#2D50A2"/>
<path d="M11.2518 38.1243C11.2169 38.1243 11.1837 38.1158 11.1543 38.1C11.1186 38.0288 11.0829 37.9545 11.0476 37.8783C11.0641 37.8047 11.1217 37.7387 11.195 37.7205C11.4328 37.662 11.6707 37.6035 11.9084 37.545C11.9263 37.5406 11.9439 37.5386 11.9612 37.5386C12.0525 37.5386 12.1323 37.5976 12.1618 37.689C12.1954 37.7928 12.1226 37.9166 12.018 37.9423C11.7801 38.0008 11.5423 38.0593 11.3045 38.1178C11.2867 38.1222 11.269 38.1243 11.2518 38.1243Z" fill="#2D50A2"/>
<path d="M18.772 34.3574C18.2344 34.3574 17.8462 34.2601 17.6697 34.0342C16.3956 32.4026 17.0051 28.4397 17.0051 28.4397C17.0051 28.4397 21.6547 25.7144 24.2799 24.3192C28.148 22.2635 29.9224 19.8318 30.4089 19.683C30.4227 19.6789 30.4352 19.6767 30.4466 19.6767C30.6174 19.6767 30.5424 20.1501 30.2197 21.3186C29.1099 25.3379 31.2517 30.5913 31.2517 30.5913C31.2517 30.5913 22.1169 34.3576 18.772 34.3574Z" fill="#2D50A2"/>
<path d="M16.758 41.1619L16.7574 41.1591C16.7577 41.1601 16.7579 41.161 16.758 41.1619ZM22.48 39.922C22.4761 39.903 22.4741 39.893 22.4741 39.893L21.7137 39.9021C22.1319 39.8952 22.6021 39.8905 23.1133 39.8905C23.1945 39.8905 23.2765 39.8907 23.3595 39.8909C23.2998 39.8977 23.2456 39.9056 23.1983 39.9151L22.48 39.922Z" fill="#2D50A2"/>
<path d="M22.6991 41.1172C22.6065 40.5521 22.5051 40.0458 22.48 39.9218L23.1983 39.9149C23.1503 39.9244 23.2197 40.5072 23.3532 41.0993C23.1398 41.1059 22.9212 41.1118 22.6991 41.1172Z" fill="#2D50A2"/>
<path d="M16.5408 39.9641L16.5404 39.9616C17.558 39.9439 18.5968 39.9241 19.6033 39.9073C19.6105 39.9147 19.6173 39.9213 19.6233 39.9272L16.5408 39.9641Z" fill="#2D50A2"/>
<path d="M19.6234 39.9272C19.6174 39.9213 19.6107 39.9148 19.6034 39.9073C20.9364 39.8852 22.213 39.8683 23.3106 39.8683C23.4276 39.8683 23.5427 39.8685 23.6553 39.8689C23.5469 39.8738 23.4472 39.8811 23.3596 39.891C23.2765 39.8907 23.1945 39.8906 23.1134 39.8906C22.6021 39.8906 22.1319 39.8953 21.7138 39.9021L19.6234 39.9272Z" fill="#2D50A2"/>
<path d="M18.0064 41.165C17.2484 41.165 16.7586 41.1617 16.758 41.1617C16.7579 41.1609 16.7577 41.16 16.7575 41.159L16.5409 39.964L19.6234 39.9271L21.7137 39.9019L22.4741 39.8929C22.4741 39.8929 22.4762 39.9029 22.48 39.9218C22.5051 40.0459 22.6065 40.5522 22.6992 41.1173C21.0392 41.1572 19.1934 41.165 18.0064 41.165Z" fill="#2D50A2"/>
<path d="M26.1277 39.9463C26.1276 39.9459 26.1276 39.9457 26.1276 39.9457C26.1276 39.9457 26.1271 39.9457 26.1261 39.9456H26.1266C26.1269 39.9456 26.1273 39.9457 26.1276 39.9457L26.1277 39.9463Z" fill="#2D50A2"/>
<path d="M26.1266 39.9456H26.1261C26.1044 39.9439 25.8356 39.9236 25.4637 39.9031C25.7177 39.9141 25.94 39.9281 26.1266 39.9456Z" fill="#2D50A2"/>
<path d="M23.3532 41.0994C23.2198 40.5072 23.1503 39.9244 23.1983 39.9149C23.2456 39.9055 23.2998 39.8975 23.3596 39.8908C23.4472 39.8809 23.5469 39.8736 23.6552 39.8687C24.3538 39.8711 24.9683 39.8816 25.4638 39.9031C25.8356 39.9236 26.1044 39.9439 26.1261 39.9456C26.127 39.9457 26.1276 39.9457 26.1276 39.9457C26.1276 39.9457 26.1276 39.9458 26.1277 39.9463L26.4096 40.8005C26.368 40.9578 25.0252 41.048 23.3532 41.0994Z" fill="#2D50A2"/>
<path d="M34.25 26.0173C34.1479 25.277 34.083 24.5484 34.0542 23.8368C34.083 24.548 34.1477 25.2762 34.2499 26.0162C34.25 26.0166 34.25 26.0169 34.25 26.0173Z" fill="#2D50A2"/>
<path d="M34.6701 28.2633C34.4916 27.5068 34.3522 26.7563 34.25 26.0174C34.25 26.017 34.25 26.0167 34.2499 26.0163C34.3519 26.7555 34.4914 27.5064 34.6701 28.2633Z" fill="#2D50A2"/>
<path d="M37.8393 32.807C38.1204 32.6799 38.4341 32.5379 38.769 32.3861C38.4341 32.5379 38.1203 32.6799 37.8393 32.807Z" fill="#2D50A2"/>
<path d="M36.5285 33.3982C35.7573 31.881 35.122 30.1635 34.6805 28.3072C34.677 28.2926 34.6735 28.278 34.6701 28.2634C34.3128 26.7489 34.1119 25.2588 34.0542 23.8369L36.0484 23.5088C36.0752 24.6242 36.3445 28.6803 38.7691 32.3863C38.4341 32.5381 38.1205 32.6801 37.8394 32.8072C37.8379 32.8077 37.8365 32.8084 37.835 32.8091C37.8344 32.8094 37.834 32.8095 37.8335 32.8098C37.1254 33.1299 36.627 33.354 36.5285 33.3982Z" fill="#2D50A2"/>
<path d="M11.7024 33.0266C11.7026 33.0266 11.7028 33.0265 11.7029 33.0265C11.7028 33.0265 11.7026 33.0266 11.7024 33.0266Z" fill="#2D50A2"/>
<path d="M13.443 38.6982C13.2389 38.6982 11.4536 33.1199 11.7024 33.0265C11.7026 33.0265 11.7028 33.0264 11.703 33.0264C11.7032 33.0262 11.7034 33.0262 11.7036 33.0261C11.7914 32.9997 12.1918 32.8632 12.1918 32.8632C12.2008 32.9105 12.2098 32.9577 12.2189 33.0048C11.9767 35.5999 13.4392 38.0134 13.4392 38.0134C13.5476 38.1989 13.6692 38.3688 13.8016 38.5243L13.4472 38.6974C13.4459 38.698 13.4445 38.6982 13.443 38.6982Z" fill="#2D50A2"/>
<path d="M13.8016 38.5242C13.6691 38.3687 13.5476 38.1989 13.4391 38.0133C13.4391 38.0133 11.9766 35.5999 12.2189 33.0047C12.5949 34.9531 13.1023 36.8074 13.8016 38.5242H13.8016Z" fill="#2D50A2"/>
<path d="M41.9158 21.3679C41.3287 21.3679 38.9225 18.4229 38.769 17.889C38.6163 17.3583 40.4302 13.6873 40.6513 13.6873C40.6525 13.6873 40.6538 13.6873 40.655 13.6876C45.0437 14.6116 47.5845 19.8664 47.5845 20.5017C47.5845 21.1369 42.5028 21.3679 41.9158 21.3679Z" fill="#2D50A2"/>
<path d="M44.8392 37.0696C44.3539 37.0696 44 37.0089 43.9337 36.8797C43.7097 36.4434 45.2116 31.387 45.2116 31.387C45.2116 31.387 48.3059 30.4845 49.5306 30.4845C49.8221 30.4845 50.0078 30.5357 50.0205 30.6623C50.0863 31.3211 49.23 35.3396 48.4395 36.1549C47.8834 36.7285 45.9908 37.0696 44.8392 37.0696Z" fill="#2D50A2"/>
<path d="M21.7164 52.073C21.3898 52.073 21.0631 52.0488 20.7401 52.0007C20.4327 51.9549 20.1152 51.8813 19.876 51.6829C19.6134 51.4651 19.4828 51.1294 19.3827 50.8035C19.1446 50.0278 18.885 49.0267 18.8761 48.2154C19.1462 48.0461 19.5 47.9933 19.8544 47.9933C20.0988 47.9933 20.3435 48.0185 20.5615 48.0479C20.8982 48.0936 21.2423 48.1414 21.545 48.2959C21.8476 48.4504 22.1062 48.7345 22.1357 49.073C22.1819 49.6026 21.6794 50.1414 21.919 50.6159C22.1193 51.0119 22.7203 51.0682 22.8566 51.5146C22.884 51.6046 22.8862 51.7035 22.8485 51.7895C22.7636 51.9828 22.5462 52.0237 22.3526 52.0424C22.1411 52.0628 21.9288 52.073 21.7164 52.073Z" fill="#2D50A2"/>
<g style="mix-blend-mode:luminosity">
<path d="M12.1918 32.8633C12.1918 32.8633 10.1955 33.4591 10.0192 34.0342C9.8276 34.6593 11.1119 38.9934 11.9784 39.0653C12.8448 39.1372 14.1618 38.323 14.1618 38.323L12.1918 32.8633Z" fill="#26B6A6"/>
<path d="M18.3099 39.9615C18.3099 39.9615 20.9211 51.4102 21.1538 52.1501C21.3864 52.8899 27.5521 52.4738 27.4358 51.9188C27.3195 51.3639 25.8652 50.4391 25.9234 49.6991C25.9817 48.9593 26.6214 47.757 26.5051 47.1559C26.3888 46.5547 24.7019 45.9998 24.8765 45.0288C25.0509 44.0576 25.9317 43.3276 25.9898 42.634C26.048 41.9404 25.5167 39.8929 25.5167 39.8929L18.3099 39.9615Z" fill="#406FBF"/>
<path d="M23.8929 52.5413C24.0062 52.4799 24.0654 52.4148 24.0542 52.3478C23.9584 51.773 22.7611 50.8152 22.809 50.049C22.8568 49.2827 23.3837 48.0376 23.2879 47.415C23.1922 46.7923 21.8033 46.2176 21.9469 45.212C22.0907 44.2063 22.8158 43.4502 22.8637 42.7318C22.8866 42.3869 22.7978 41.7188 22.6992 41.1173C22.9212 41.112 23.1399 41.1061 23.3533 41.0995C23.491 41.7104 23.6966 42.3314 23.9113 42.344C23.953 42.3464 24.0132 42.3476 24.0878 42.3476C24.5021 42.3476 25.3629 42.3102 25.9797 42.2393C25.9891 42.3409 25.9943 42.4343 25.9943 42.516C25.9943 42.5587 25.9928 42.5981 25.9897 42.6341C25.9888 42.6455 25.9877 42.657 25.9862 42.6684C25.9848 42.6798 25.9833 42.6913 25.9814 42.7027C25.8742 43.376 25.0452 44.0897 24.8765 45.0288C24.8679 45.0762 24.8638 45.1226 24.8638 45.1681C24.8631 45.7935 25.6258 46.2414 26.1136 46.6519C25.286 46.6957 24.4595 46.7594 23.6349 46.843C23.5242 46.8541 23.4289 46.9297 23.4289 47.049C23.4289 47.1469 23.5152 47.2557 23.6197 47.2557C23.6247 47.2557 23.6298 47.2554 23.6349 47.255C24.4918 47.1681 25.3506 47.1027 26.2107 47.0588C26.3049 47.0539 26.3656 46.9983 26.3928 46.9294C26.4506 47.0048 26.4904 47.08 26.5051 47.156C26.5147 47.2058 26.5191 47.2599 26.5191 47.3175C26.5191 47.33 26.519 47.3427 26.5186 47.3557C26.5182 47.3669 26.5177 47.3783 26.5171 47.3898C26.4797 48.0321 25.9748 49.0459 25.9234 49.6992C25.9223 49.7138 25.9218 49.7282 25.9218 49.7428C25.9215 50.4751 27.3216 51.3748 27.4358 51.9189C27.4369 51.9241 27.4374 51.9295 27.4374 51.9348C27.437 52.0121 27.3156 52.0866 27.1067 52.1554C27.0467 52.175 26.9794 52.1944 26.9058 52.2131C26.234 52.384 25.0282 52.5102 23.8929 52.5413ZM25.3285 42.6954C25.3232 42.6954 25.3177 42.6957 25.312 42.6963C24.6074 42.7756 23.903 42.855 23.1984 42.9344C23.0878 42.9469 22.9924 43.0202 22.9924 43.1404C22.9924 43.237 23.0779 43.3473 23.1819 43.3473C23.1872 43.3473 23.1927 43.347 23.1984 43.3464C23.903 43.267 24.6074 43.1876 25.312 43.1084C25.4226 43.0959 25.518 43.0225 25.518 42.9024C25.518 42.8057 25.4325 42.6954 25.3285 42.6954Z" fill="#5CC8BC"/>
<path d="M13.4391 38.0135C13.4391 38.0135 9.11556 30.8783 16.5675 27.9533L20.21 39.9418C20.21 39.9418 15.1679 40.9714 13.4391 38.0135Z" fill="#26B6A6"/>
<path d="M16.8276 27.7945C16.8276 27.7945 22.9434 24.1785 25.195 22.7464C29.3987 20.0721 31.8336 16.8684 31.8336 16.8684L40.3393 40.9333C40.3393 40.9333 32.2485 40.311 27.8919 40.0343C23.5353 39.7577 19.6628 39.9652 19.6628 39.9652C19.6628 39.9652 16.551 37.0608 16.136 32.4277C15.7212 27.7945 16.8276 27.7945 16.8276 27.7945Z" fill="#406FBF"/>
<path d="M38.5657 40.7983C38.4998 40.7934 38.4319 40.7882 38.3631 40.7831C38.3265 40.7802 38.2898 40.7775 38.2523 40.7747C37.8398 40.7435 37.3804 40.7091 36.8876 40.6723C36.8763 40.6713 36.8645 40.6705 36.8532 40.6697C36.795 40.6653 36.7367 40.661 36.6775 40.6565C36.6561 40.655 36.6345 40.6533 36.6129 40.6517C36.118 40.6149 35.593 40.5759 35.051 40.5359C35.0229 40.5339 34.9943 40.5318 34.966 40.5297C34.8649 40.5223 34.764 40.5149 34.662 40.5074C34.6504 40.5065 34.6392 40.5057 34.6276 40.5049C34.2365 40.4762 33.8379 40.4471 33.4373 40.418C33.4086 40.4159 33.3798 40.4138 33.3512 40.4118C32.8184 40.3732 32.2824 40.3346 31.7525 40.297C31.7217 40.2948 31.6906 40.2926 31.6598 40.2904C31.0597 40.2479 30.4694 40.2066 29.9037 40.1679C29.8724 40.1657 29.8412 40.1635 29.8102 40.1614C29.123 40.1145 28.474 40.0713 27.8919 40.0343C27.8396 40.031 27.7874 40.0278 27.7351 40.0245C27.7049 40.0227 27.675 40.021 27.6447 40.0192C27.1291 39.9884 26.621 39.9642 26.1266 39.9457C25.94 39.9283 25.7177 39.9143 25.4638 39.9033C25.0702 39.8816 24.561 39.8597 24.1067 39.8597C23.947 39.8597 23.7941 39.8625 23.6552 39.8688C23.5426 39.8684 23.4275 39.8682 23.3105 39.8682C22.2129 39.8682 20.9364 39.8851 19.6034 39.9072C19.1708 39.4774 16.517 36.681 16.1361 32.4276C16.0707 31.697 16.0431 31.0815 16.043 30.5631C16.0427 27.7945 16.8276 27.7945 16.8276 27.7945C16.8276 27.7945 22.9435 24.1785 25.195 22.7463C28.8395 20.4279 31.1545 17.7115 31.706 17.0297C30.648 20.362 30.5052 24.5456 31.5252 28.8688C32.7595 34.0998 35.4244 38.3863 38.5657 40.7983ZM30.4466 19.6768C30.4352 19.6768 30.4227 19.6789 30.4089 19.6831C29.9224 19.8318 28.148 22.2635 24.2799 24.3192C21.6547 25.7145 17.0051 28.4398 17.0051 28.4398C17.0051 28.4398 16.3956 32.4027 17.6697 34.0342C17.8462 34.2601 18.2344 34.3575 18.772 34.3575C22.1169 34.3576 31.2517 30.5914 31.2517 30.5914C31.2517 30.5914 29.1099 25.3379 30.2197 21.3186C30.5424 20.1501 30.6174 19.6768 30.4466 19.6768Z" fill="#5CC8BC"/>
<path d="M52.3063 23.9657C54.4331 32.9797 51.5052 41.3846 45.7666 42.7385C40.0281 44.0925 33.652 37.8827 31.5252 28.8687C29.3984 19.8546 32.3263 11.4497 38.0649 10.0957C43.8034 8.74185 50.1795 14.9515 52.3063 23.9657Z" fill="#26B6A6"/>
<path d="M44.5502 40.0955C42.6696 40.0955 40.7326 38.997 39.0394 37.1209C39.72 37.8627 40.4555 38.4941 41.2366 38.9866C42.8635 36.3938 43.5993 33.2908 43.4762 30.2216C44.2554 29.8535 44.7951 29.5868 44.8532 29.5287C44.8659 29.5159 44.8718 29.4835 44.8718 29.4337C44.8713 28.5625 43.0317 22.3603 43.0317 22.3603L41.2328 22.6562C40.8233 21.9867 40.3588 21.3511 39.8399 20.7581C38.6037 19.3459 36.6545 17.8892 35.245 17.8892C35.0882 17.8892 34.938 17.9071 34.7961 17.9453C34.2223 19.7697 33.9964 21.7843 34.0667 23.8348L34.0573 23.8364C33.8318 18.2426 35.8252 13.7066 39.2431 12.9002C39.5992 12.8161 39.9603 12.7751 40.3229 12.7751C44.3246 12.7751 48.5824 17.7494 50.1996 24.6037C51.9634 32.0789 49.9175 38.959 45.63 39.9705C45.2739 40.0545 44.9128 40.0955 44.5502 40.0955ZM49.5305 30.4846C48.3059 30.4846 45.2116 31.3871 45.2116 31.3871C45.2116 31.3871 43.7097 36.4435 43.9336 36.8798C44 37.009 44.3538 37.0697 44.8391 37.0697C45.9907 37.0697 47.8833 36.7286 48.4395 36.155C49.2299 35.3397 50.0863 31.3212 50.0205 30.6624C50.0077 30.5358 49.8221 30.4846 49.5305 30.4846ZM40.6513 13.6873C40.4302 13.6873 38.6163 17.3584 38.769 17.889C38.9226 18.4229 41.3287 21.368 41.9158 21.368C42.5029 21.368 47.5845 21.137 47.5845 20.5017C47.5845 19.8665 45.0438 14.6117 40.655 13.6876C40.6538 13.6873 40.6526 13.6873 40.6513 13.6873Z" fill="#33535F"/>
<path d="M39.0394 37.1208C36.5634 34.4223 34.8144 30.2626 34.25 26.0174C34.3522 26.7564 34.4915 27.5068 34.6701 28.2633C34.6735 28.2779 34.6769 28.2926 34.6805 28.3072C35.122 30.1635 35.7573 31.881 36.5285 33.3981C36.5289 33.398 36.5293 33.3979 36.5296 33.3976C37.2604 34.8362 38.1135 36.0949 39.0394 37.1208Z" fill="#2D5BB2"/>
<path d="M41.2366 38.9866C40.4555 38.4941 39.72 37.8627 39.0394 37.1209C38.1134 36.095 37.2604 34.8362 36.5295 33.3976C36.6307 33.3522 37.1281 33.1286 37.8334 32.8098C37.834 32.8095 37.8344 32.8093 37.8349 32.8091C37.8364 32.8084 37.8378 32.8078 37.8393 32.8072C38.1203 32.6801 38.4341 32.5381 38.769 32.3863C40.2716 31.7049 42.1969 30.8261 43.4762 30.2216C43.5992 33.2908 42.8634 36.3938 41.2366 38.9866ZM34.0666 23.8348C33.9963 21.7843 34.2222 19.7697 34.7961 17.9453C34.938 17.9071 35.0882 17.8892 35.245 17.8892C36.6545 17.8892 38.6037 19.3459 39.8399 20.7581C40.3588 21.3511 40.8232 21.9867 41.2327 22.6562L36.0483 23.5088L34.0666 23.8348Z" fill="#273E47"/>
<path d="M16.5404 39.9641C16.5404 39.9641 18.6902 51.821 18.8818 52.5873C19.0733 53.3535 24.1499 52.9225 24.0541 52.3478C23.9583 51.773 22.761 50.8152 22.8089 50.049C22.8567 49.2827 23.3836 48.0376 23.2878 47.415C23.1921 46.7923 21.8032 46.2176 21.9468 45.212C22.0906 44.2063 22.8157 43.4502 22.8636 42.7318C22.9114 42.0135 22.474 39.8929 22.474 39.8929L16.5404 39.9641Z" fill="#26B6A6"/>
<path d="M34.6701 28.2634C35.112 30.1365 35.7512 31.8691 36.5285 33.3982C36.9479 33.2098 44.6245 29.7573 44.8532 29.5287C45.0881 29.2937 43.0317 22.3603 43.0317 22.3603L34.0542 23.8369C34.1119 25.2588 34.3128 26.7489 34.6701 28.2634Z" fill="#406FBF"/>
<path d="M36.5285 33.3982C36.627 33.354 37.1255 33.1299 37.8335 32.8098C37.1282 33.1286 36.6308 33.3522 36.5296 33.3976C36.5293 33.3979 36.5289 33.3981 36.5285 33.3982ZM37.835 32.8091C37.8365 32.8084 37.8379 32.8077 37.8394 32.8072C37.8379 32.8078 37.8365 32.8084 37.835 32.8091ZM38.7691 32.3863C36.3445 28.6803 36.0752 24.6242 36.0484 23.5088L43.0317 22.3603C43.0317 22.3603 44.8713 28.5625 44.8719 29.4337C44.8719 29.4835 44.866 29.5159 44.8532 29.5287C44.6997 29.6822 41.1868 31.2899 38.7691 32.3863Z" fill="#5CC8BC"/>
<path d="M45.966 25.4432C46.4325 27.4203 45.9006 29.2376 44.7782 29.5025C43.6557 29.7673 42.3676 28.3794 41.9011 26.4023C41.4347 24.4253 41.9665 22.6079 43.0889 22.3432C44.2116 22.0783 45.4997 23.4662 45.966 25.4432Z" fill="#26B6A6"/>
<path d="M23.1818 43.3474C23.0779 43.3474 22.9923 43.2371 22.9923 43.1405C22.9923 43.0203 23.0877 42.947 23.1983 42.9345C23.9029 42.8551 24.6074 42.7757 25.312 42.6964C25.3176 42.6958 25.3231 42.6955 25.3285 42.6955C25.4324 42.6955 25.518 42.8058 25.518 42.9025C25.518 43.0226 25.4225 43.096 25.312 43.1085C24.6074 43.1877 23.9029 43.2671 23.1983 43.3464C23.1927 43.3471 23.1872 43.3474 23.1818 43.3474Z" fill="#26B6A6"/>
<path d="M26.3927 46.9294C26.328 46.8454 26.241 46.7611 26.1409 46.6753L26.1556 46.6497C26.174 46.6488 26.1922 46.6478 26.2106 46.6468C26.2149 46.6467 26.2191 46.6466 26.2233 46.6466C26.3842 46.6466 26.4402 46.8085 26.3927 46.9294Z" fill="#A7A9A8"/>
<path d="M26.1409 46.6753C26.1318 46.6675 26.1227 46.6598 26.1135 46.6519C26.1275 46.6513 26.1415 46.6504 26.1555 46.6498L26.1409 46.6753Z" fill="#979999"/>
<path d="M23.6197 47.2556C23.5152 47.2556 23.429 47.1469 23.429 47.0489C23.429 46.9296 23.5243 46.8541 23.6349 46.843C24.4596 46.7593 25.286 46.6956 26.1136 46.6518C26.2251 46.7457 26.3224 46.8376 26.3928 46.9293C26.3656 46.9983 26.3049 47.0539 26.2107 47.0587C25.3507 47.1026 24.4918 47.168 23.6349 47.2549C23.6299 47.2553 23.6248 47.2556 23.6197 47.2556Z" fill="#26B6A6"/>
<path d="M23.1983 39.915C23.1007 39.9344 23.4884 42.3191 23.9113 42.344C24.3343 42.3689 26.6717 42.2663 26.6836 42.0589C26.7113 41.5766 26.1276 39.9458 26.1276 39.9458C26.1276 39.9458 23.9032 39.7747 23.1983 39.915Z" fill="#273E47"/>
<path d="M10.2492 35.5994C10.2108 35.5731 10.1808 35.5336 10.165 35.485C10.1488 35.4349 10.1573 35.3802 10.1822 35.3341C10.2031 35.4204 10.2254 35.5089 10.2492 35.5994Z" fill="#A7A9A8"/>
<path d="M10.3657 35.6353C10.3231 35.6353 10.2829 35.6225 10.2492 35.5994C10.2254 35.5089 10.2031 35.4205 10.1823 35.3341C10.209 35.2845 10.2547 35.2448 10.3089 35.2315C10.5467 35.173 10.7845 35.1145 11.0224 35.056C11.0402 35.0516 11.0579 35.0496 11.0751 35.0496C11.1664 35.0496 11.2462 35.1086 11.2758 35.1999C11.3094 35.3038 11.2366 35.4275 11.1319 35.4533C10.8941 35.5118 10.6562 35.5703 10.4184 35.6288C10.4006 35.6332 10.383 35.6353 10.3657 35.6353Z" fill="#5CC8BC"/>
<path d="M10.4925 36.4294C10.4391 36.4054 10.3966 36.3586 10.3768 36.2973C10.3593 36.2431 10.3707 36.1834 10.4006 36.135C10.4301 36.2327 10.4607 36.331 10.4925 36.4294Z" fill="#A7A9A8"/>
<path d="M10.5775 36.4478C10.5475 36.4478 10.5187 36.4413 10.4925 36.4295C10.4608 36.331 10.4301 36.2327 10.4006 36.1351C10.428 36.091 10.4707 36.0562 10.5207 36.044C10.7585 35.9855 10.9963 35.927 11.2342 35.8685C11.252 35.8641 11.2696 35.8619 11.2869 35.8619C11.3783 35.8619 11.458 35.921 11.4875 36.0123C11.5212 36.1163 11.4484 36.24 11.3437 36.2657C11.1059 36.3243 10.868 36.3828 10.6302 36.4413C10.6124 36.4456 10.5948 36.4478 10.5775 36.4478Z" fill="#5CC8BC"/>
<path d="M10.7704 37.2185C10.7359 37.1923 10.7091 37.1551 10.6945 37.1099C10.6838 37.0772 10.6838 37.0426 10.692 37.0096C10.7177 37.0798 10.7439 37.1494 10.7704 37.2185Z" fill="#A7A9A8"/>
<path d="M10.895 37.2603C10.8488 37.2603 10.8056 37.2451 10.7703 37.2185C10.7438 37.1494 10.7176 37.0798 10.6919 37.0096C10.7097 36.9378 10.7665 36.8742 10.8382 36.8565C11.076 36.798 11.3138 36.7395 11.5517 36.681C11.5695 36.6766 11.5871 36.6746 11.6043 36.6746C11.6957 36.6746 11.7755 36.7335 11.8051 36.8249C11.8387 36.9288 11.7659 37.0525 11.6612 37.0783C11.4234 37.1368 11.1855 37.1953 10.9477 37.2538C10.9299 37.2582 10.9123 37.2603 10.895 37.2603Z" fill="#5CC8BC"/>
<path d="M11.1544 38.0999C11.1068 38.0744 11.0694 38.0304 11.0511 37.9739C11.0411 37.9428 11.0405 37.9098 11.0476 37.8782C11.0829 37.9544 11.1186 38.0287 11.1544 38.0999Z" fill="#A7A9A8"/>
<path d="M11.2518 38.1243C11.2169 38.1243 11.1837 38.1158 11.1543 38.1C11.1186 38.0288 11.0829 37.9545 11.0476 37.8783C11.0641 37.8047 11.1217 37.7387 11.195 37.7205C11.4328 37.662 11.6707 37.6035 11.9084 37.545C11.9263 37.5406 11.9439 37.5386 11.9612 37.5386C12.0525 37.5386 12.1323 37.5976 12.1618 37.689C12.1954 37.7928 12.1226 37.9166 12.018 37.9423C11.7801 38.0008 11.5423 38.0593 11.3045 38.1178C11.2867 38.1222 11.269 38.1243 11.2518 38.1243Z" fill="#5CC8BC"/>
<path d="M18.772 34.3574C18.2344 34.3574 17.8462 34.2601 17.6697 34.0342C16.3956 32.4026 17.0051 28.4397 17.0051 28.4397C17.0051 28.4397 21.6547 25.7144 24.2799 24.3192C28.148 22.2635 29.9224 19.8318 30.4089 19.683C30.4227 19.6789 30.4352 19.6767 30.4466 19.6767C30.6174 19.6767 30.5424 20.1501 30.2197 21.3186C29.1099 25.3379 31.2517 30.5913 31.2517 30.5913C31.2517 30.5913 22.1169 34.3576 18.772 34.3574Z" fill="white"/>
<path d="M16.758 41.1619L16.7574 41.1591C16.7577 41.1601 16.7579 41.161 16.758 41.1619ZM22.48 39.922C22.4761 39.903 22.4741 39.893 22.4741 39.893L21.7137 39.9021C22.1319 39.8952 22.6021 39.8905 23.1133 39.8905C23.1945 39.8905 23.2765 39.8907 23.3595 39.8909C23.2998 39.8977 23.2456 39.9056 23.1983 39.9151L22.48 39.922Z" fill="#A7A9A8"/>
<path d="M22.6991 41.1172C22.6065 40.5521 22.5051 40.0458 22.48 39.9218L23.1983 39.9149C23.1503 39.9244 23.2197 40.5072 23.3532 41.0993C23.1398 41.1059 22.9212 41.1118 22.6991 41.1172Z" fill="#26B6A6"/>
<path d="M16.5408 39.9641L16.5404 39.9616C17.558 39.9439 18.5968 39.9241 19.6033 39.9073C19.6105 39.9147 19.6173 39.9213 19.6233 39.9272L16.5408 39.9641Z" fill="#2D5BB2"/>
<path d="M19.6234 39.9272C19.6174 39.9213 19.6107 39.9148 19.6034 39.9073C20.9364 39.8852 22.213 39.8683 23.3106 39.8683C23.4276 39.8683 23.5427 39.8685 23.6553 39.8689C23.5469 39.8738 23.4472 39.8811 23.3596 39.891C23.2765 39.8907 23.1945 39.8906 23.1134 39.8906C22.6021 39.8906 22.1319 39.8953 21.7138 39.9021L19.6234 39.9272Z" fill="#7B8FB2"/>
<path d="M18.0064 41.165C17.2484 41.165 16.7586 41.1617 16.758 41.1617C16.7579 41.1609 16.7577 41.16 16.7575 41.159L16.5409 39.964L19.6234 39.9271L21.7137 39.9019L22.4741 39.8929C22.4741 39.8929 22.4762 39.9029 22.48 39.9218C22.5051 40.0459 22.6065 40.5522 22.6992 41.1173C21.0392 41.1572 19.1934 41.165 18.0064 41.165Z" fill="#5CC8BC"/>
<path d="M26.1277 39.9463C26.1276 39.9459 26.1276 39.9457 26.1276 39.9457C26.1276 39.9457 26.1271 39.9457 26.1261 39.9456H26.1266C26.1269 39.9456 26.1273 39.9457 26.1276 39.9457L26.1277 39.9463Z" fill="#A7A9A8"/>
<path d="M26.1266 39.9456H26.1261C26.1044 39.9439 25.8356 39.9236 25.4637 39.9031C25.7177 39.9141 25.94 39.9281 26.1266 39.9456Z" fill="#7B8FB2"/>
<path d="M23.3532 41.0994C23.2198 40.5072 23.1503 39.9244 23.1983 39.9149C23.2456 39.9055 23.2998 39.8975 23.3596 39.8908C23.4472 39.8809 23.5469 39.8736 23.6552 39.8687C24.3538 39.8711 24.9683 39.8816 25.4638 39.9031C25.8356 39.9236 26.1044 39.9439 26.1261 39.9456C26.127 39.9457 26.1276 39.9457 26.1276 39.9457C26.1276 39.9457 26.1276 39.9458 26.1277 39.9463L26.4096 40.8005C26.368 40.9578 25.0252 41.048 23.3532 41.0994Z" fill="#0F191D"/>
<path d="M34.25 26.0173C34.1479 25.277 34.083 24.5484 34.0542 23.8368C34.083 24.548 34.1477 25.2762 34.2499 26.0162C34.25 26.0166 34.25 26.0169 34.25 26.0173Z" fill="#2D5BB2"/>
<path d="M34.6701 28.2633C34.4916 27.5068 34.3522 26.7563 34.25 26.0174C34.25 26.017 34.25 26.0167 34.2499 26.0163C34.3519 26.7555 34.4914 27.5064 34.6701 28.2633Z" fill="#24437F"/>
<path d="M37.8393 32.807C38.1204 32.6799 38.4341 32.5379 38.769 32.3861C38.4341 32.5379 38.1203 32.6799 37.8393 32.807Z" fill="#1D2D51"/>
<path d="M36.5285 33.3982C35.7573 31.881 35.122 30.1635 34.6805 28.3072C34.677 28.2926 34.6735 28.278 34.6701 28.2634C34.3128 26.7489 34.1119 25.2588 34.0542 23.8369L36.0484 23.5088C36.0752 24.6242 36.3445 28.6803 38.7691 32.3863C38.4341 32.5381 38.1205 32.6801 37.8394 32.8072C37.8379 32.8077 37.8365 32.8084 37.835 32.8091C37.8344 32.8094 37.834 32.8095 37.8335 32.8098C37.1254 33.1299 36.627 33.354 36.5285 33.3982Z" fill="#33535F"/>
<path d="M11.7024 33.0266C11.7026 33.0266 11.7028 33.0265 11.7029 33.0265C11.7028 33.0265 11.7026 33.0266 11.7024 33.0266Z" fill="#A7A9A8"/>
<path d="M13.443 38.6982C13.2389 38.6982 11.4536 33.1199 11.7024 33.0265C11.7026 33.0265 11.7028 33.0264 11.703 33.0264C11.7032 33.0262 11.7034 33.0262 11.7036 33.0261C11.7914 32.9997 12.1918 32.8632 12.1918 32.8632C12.2008 32.9105 12.2098 32.9577 12.2189 33.0048C11.9767 35.5999 13.4392 38.0134 13.4392 38.0134C13.5476 38.1989 13.6692 38.3688 13.8016 38.5243L13.4472 38.6974C13.4459 38.698 13.4445 38.6982 13.443 38.6982Z" fill="#5CC8BC"/>
<path d="M13.8016 38.5242C13.6691 38.3687 13.5476 38.1989 13.4391 38.0133C13.4391 38.0133 11.9766 35.5999 12.2189 33.0047C12.5949 34.9531 13.1023 36.8074 13.8016 38.5242H13.8016Z" fill="#26B6A6"/>
<path d="M41.9158 21.3679C41.3287 21.3679 38.9225 18.4229 38.769 17.889C38.6163 17.3583 40.4302 13.6873 40.6513 13.6873C40.6525 13.6873 40.6538 13.6873 40.655 13.6876C45.0437 14.6116 47.5845 19.8664 47.5845 20.5017C47.5845 21.1369 42.5028 21.3679 41.9158 21.3679Z" fill="#26B6A6"/>
<path d="M44.8392 37.0696C44.3539 37.0696 44 37.0089 43.9337 36.8797C43.7097 36.4434 45.2116 31.387 45.2116 31.387C45.2116 31.387 48.3059 30.4845 49.5306 30.4845C49.8221 30.4845 50.0078 30.5357 50.0205 30.6623C50.0863 31.3211 49.23 35.3396 48.4395 36.1549C47.8834 36.7285 45.9908 37.0696 44.8392 37.0696Z" fill="#26B6A6"/>
<path d="M21.7164 52.073C21.3898 52.073 21.0631 52.0488 20.7401 52.0007C20.4327 51.9549 20.1152 51.8813 19.876 51.6829C19.6134 51.4651 19.4828 51.1294 19.3827 50.8035C19.1446 50.0278 18.885 49.0267 18.8761 48.2154C19.1462 48.0461 19.5 47.9933 19.8544 47.9933C20.0988 47.9933 20.3435 48.0185 20.5615 48.0479C20.8982 48.0936 21.2423 48.1414 21.545 48.2959C21.8476 48.4504 22.1062 48.7345 22.1357 49.073C22.1819 49.6026 21.6794 50.1414 21.919 50.6159C22.1193 51.0119 22.7203 51.0682 22.8566 51.5146C22.884 51.6046 22.8862 51.7035 22.8485 51.7895C22.7636 51.9828 22.5462 52.0237 22.3526 52.0424C22.1411 52.0628 21.9288 52.073 21.7164 52.073Z" fill="#5CC8BC"/>
</g>
</svg>
