<svg width="64" height="64" viewBox="0 0 64 64" fill="none" xmlns="http://www.w3.org/2000/svg">
<path d="M22.6529 53.9433L22.2373 53.7033C22.1063 53.6277 22.0001 53.4438 22.0001 53.2925L22 22.4975C22 22.3463 22.1062 22.1624 22.2372 22.0867L41.3417 11.0567C41.4728 10.9812 41.685 10.9812 41.8161 11.0567L42.2319 11.2968C42.3628 11.3723 42.4691 11.5563 42.4691 11.7075V42.5025C42.4691 42.6537 42.3628 42.8377 42.2319 42.9133L23.1273 53.9433C22.9963 54.0189 22.7839 54.0189 22.6529 53.9433Z" fill="#2D50A2"/>
<path d="M22.07 22.2637L22.0693 22.2633C22.1132 22.1889 22.1712 22.1252 22.2369 22.0869L30.9111 17.0789C30.9111 17.079 30.911 17.0792 30.911 17.0792L22.2375 22.0869C22.1721 22.1247 22.1129 22.1894 22.07 22.2637ZM32.2361 16.3142C32.2362 16.3141 32.2363 16.3138 32.2364 16.3137L32.9101 15.9247C32.9101 15.9248 32.9101 15.925 32.9102 15.9251L32.2361 16.3142ZM33.8183 15.4007C33.8183 15.4006 33.8183 15.4005 33.8183 15.4005L33.8297 15.3938C33.8293 15.3942 33.8288 15.3945 33.8285 15.3949L33.8183 15.4007ZM34.3559 15.09L41.3417 11.0568C41.4074 11.0191 41.4934 11.0001 41.5791 11.0001C41.6116 11.0001 41.6439 11.0028 41.6751 11.0081C41.6439 11.0028 41.6116 11.0001 41.5793 11.0001C41.4934 11.0001 41.4076 11.0191 41.3421 11.0569L34.357 15.0898C34.3565 15.0898 34.3562 15.09 34.3559 15.09ZM42.2924 11.3405C42.2732 11.3236 42.253 11.3088 42.2323 11.2969L42.0476 11.1903L42.2323 11.2967C42.253 11.3087 42.2731 11.3235 42.2924 11.3405Z" fill="#2D50A2"/>
<path d="M22.0698 22.2637L22.9597 22.7771C23.0036 22.7025 23.0617 22.638 23.1274 22.6006L42.4664 11.6692C42.4538 11.5515 42.3836 11.4212 42.2922 11.3405C42.2731 11.3236 42.2528 11.3088 42.2321 11.2969L42.0474 11.1903L41.8158 11.0568C41.7752 11.0333 41.7265 11.0171 41.6749 11.0081C41.6437 11.0028 41.6114 11.0001 41.5791 11.0001C41.4932 11.0001 41.4074 11.0191 41.3419 11.0569L22.2374 22.0869C22.1719 22.1246 22.1127 22.1894 22.0698 22.2637Z" fill="#2D50A2"/>
<path d="M22.9937 53.9907H22.9934C22.9942 53.9905 22.9949 53.9904 22.9956 53.9902C22.995 53.9904 22.9943 53.9905 22.9937 53.9907Z" fill="#2D50A2"/>
<path d="M22 53.2646V52.2052C22 52.2052 22.0001 52.2052 22.0001 52.2052V53.2645L22 53.2646Z" fill="#2D50A2"/>
<path d="M22.6633 53.949C22.6598 53.9472 22.6563 53.9453 22.6529 53.9435L22.2366 53.7036C22.1062 53.627 22 53.4439 22 53.2928V53.2645L22.0001 53.2644V53.2925C22.0001 53.4437 22.1063 53.6277 22.2373 53.7033L22.6529 53.9433C22.6563 53.9452 22.6598 53.9471 22.6633 53.949Z" fill="#2D50A2"/>
<path d="M22 52.2051V51.4917L22.0001 51.4919V52.205C22.0001 52.205 22 52.205 22 52.2051Z" fill="#2D50A2"/>
<path d="M22 40.3723V22.4976L22.0001 40.3723H22Z" fill="#2D50A2"/>
<path d="M22.0001 46.4719C22 46.4717 22 46.4717 22 46.4715V40.3722H22.0001L22.0001 46.4719Z" fill="#2D50A2"/>
<path d="M22.0001 48.0583C22 48.0582 22 48.0582 22 48.0582V46.4714C22 46.4716 22 46.4716 22.0001 46.4718V48.0583Z" fill="#2D50A2"/>
<path d="M22.0001 51.2681L22 51.2678V48.0584C22 48.0584 22 48.0584 22.0001 48.0585V51.2681Z" fill="#2D50A2"/>
<path d="M22 22.4973C22 22.4217 22.0262 22.3374 22.069 22.263L22.0696 22.2633C22.0266 22.3377 22 22.4216 22 22.4973Z" fill="#2D50A2"/>
<path d="M22.0001 51.4919L22 51.4917V51.2677L22.0001 51.2679V51.4919Z" fill="#2D50A2"/>
<path d="M22.8874 53.9998C22.8239 53.9998 22.7605 53.989 22.7055 53.9677C22.6907 53.9624 22.6767 53.9558 22.6633 53.9489C22.6598 53.947 22.6563 53.9452 22.6529 53.9432L22.2373 53.7032C22.1063 53.6276 22.0001 53.4437 22.0001 53.2924V53.2644V52.205V51.4919V51.2679V48.0583V46.4718L22.0001 40.3721L22 22.4974C22 22.4217 22.0266 22.3378 22.0696 22.2634L22.9595 22.7769C22.9158 22.8513 22.8895 22.9356 22.8895 23.0112V53.8065C22.8895 53.8603 22.9026 53.9029 22.9256 53.9314C22.9489 53.9599 22.9817 53.9754 23.0202 53.9754C23.0306 53.9754 23.0415 53.9743 23.0527 53.972C23.062 53.9701 23.0713 53.9674 23.0805 53.964L23.0713 53.9677L23.0472 53.9764L23.0373 53.9797C23.0238 53.9838 23.0102 53.987 22.9956 53.9901C22.9948 53.9903 22.994 53.9904 22.9932 53.9906H22.9881C22.9553 53.9967 22.9213 53.9998 22.8874 53.9998ZM23.0805 53.964L23.0855 53.9621C23.0839 53.9627 23.0822 53.9634 23.0805 53.964Z" fill="#2D50A2"/>
<path d="M24.3668 25.4809L40.9915 15.8828C41.0701 15.8374 41.1975 15.8374 41.2762 15.8827L41.4364 15.9752C41.5151 16.0206 41.5788 16.131 41.5788 16.2217V41.5839C41.5788 41.6746 41.5151 41.785 41.4364 41.8304L24.8122 51.4286C24.7336 51.474 24.6062 51.474 24.5276 51.4286L24.3668 51.3359C24.2883 51.2905 24.2246 51.1801 24.2246 51.0894V25.7274C24.2246 25.6367 24.2883 25.5263 24.3668 25.4809Z" fill="#2D50A2"/>
<path d="M41.5737 16.1791C41.5561 16.1209 41.5014 16.1023 41.4367 16.1395L24.8121 25.7379C24.7727 25.7609 24.7365 25.7992 24.7114 25.8442L24.2666 25.5878C24.2918 25.543 24.328 25.5034 24.3674 25.4816L40.9919 15.8833C41.0696 15.8372 41.1978 15.8372 41.2756 15.8833L41.4367 15.9752C41.5034 16.0148 41.5594 16.0991 41.5737 16.1791Z" fill="#2D50A2"/>
<path d="M24.7781 51.4435C24.7616 51.4501 24.7441 51.4545 24.7255 51.4577L24.6981 51.4611C24.6696 51.4633 24.6401 51.4621 24.6116 51.4577C24.5929 51.4545 24.5754 51.4501 24.559 51.4435C24.548 51.4392 24.537 51.4337 24.5272 51.4281L24.3673 51.3362C24.2884 51.2902 24.2249 51.1806 24.2249 51.0897V25.7279C24.2249 25.6818 24.2402 25.6315 24.2665 25.5875L24.7113 25.844C24.6861 25.8888 24.6696 25.9393 24.6696 25.9841V51.3459C24.6696 51.4237 24.7156 51.4621 24.7781 51.4435Z" fill="#2D50A2"/>
<path d="M26.0232 28.7678L28.6744 27.2153L28.6741 30.2983L26.0232 31.8506V28.7678Z" fill="#2D50A2"/>
<path d="M26.0234 31.9607C26.0045 31.9607 25.9858 31.9559 25.9689 31.9461C25.9348 31.9266 25.9138 31.8904 25.9138 31.8511V28.7682C25.9138 28.7293 25.9344 28.6933 25.968 28.6737L28.6194 27.1212C28.6532 27.1015 28.6953 27.1012 28.7291 27.1207C28.7632 27.1402 28.7842 27.1764 28.7842 27.2157L28.7839 30.2988C28.7839 30.3377 28.7632 30.3736 28.7297 30.3933L26.0787 31.9456C26.0617 31.9557 26.0425 31.9607 26.0234 31.9607ZM26.1329 28.831V31.66L28.5648 30.236L28.5652 27.4068L26.1329 28.831Z" fill="#2D50A2"/>
<path d="M30.0093 26.5534V26.7764C30.0093 26.8974 30.0942 26.9465 30.199 26.8859L39.609 21.4539C39.7138 21.3934 39.7988 21.2463 39.7988 21.1253V20.9016C39.7988 20.7805 39.7138 20.7316 39.609 20.792L30.199 26.2248C30.0942 26.2854 30.0093 26.4324 30.0093 26.5534Z" fill="#2D50A2"/>
<path d="M30.0093 27.8996V28.1226C30.0093 28.2436 30.0942 28.2926 30.199 28.2322L39.609 22.8002C39.7138 22.7396 39.7988 22.5926 39.7988 22.4715V22.2477C39.7988 22.1268 39.7138 22.0777 39.609 22.1382L30.199 27.571C30.0942 27.6315 30.0093 27.7787 30.0093 27.8996Z" fill="#2D50A2"/>
<path d="M30.0093 29.2392V29.4622C30.0093 29.5832 30.0942 29.6322 30.199 29.5718L39.609 24.1396C39.7138 24.0792 39.7988 23.9321 39.7988 23.811V23.5873C39.7988 23.4663 39.7138 23.4172 39.609 23.4778L30.199 28.9106C30.0942 28.9711 30.0093 29.1181 30.0093 29.2392Z" fill="#2D50A2"/>
<path d="M27.3932 30.3442L26.7766 29.7508L27.042 29.1885L27.3932 29.5265L28.8535 26.4352L29.119 26.6908L27.3932 30.3442Z" fill="#2D50A2"/>
<path d="M26.0232 34.4202L28.6744 32.8678L28.6741 35.9508L26.0232 37.5032V34.4202Z" fill="#2D50A2"/>
<path d="M26.0234 37.6125C26.0045 37.6125 25.9858 37.6077 25.9689 37.5981C25.9348 37.5785 25.9138 37.5422 25.9138 37.503V34.4201C25.9138 34.3812 25.9344 34.3453 25.968 34.3255L28.6194 32.7731C28.6532 32.7533 28.6953 32.7531 28.7291 32.7725C28.7632 32.792 28.7842 32.8284 28.7842 32.8676L28.7839 35.9506C28.7839 35.9895 28.7632 36.0256 28.7297 36.0452L26.0787 37.5975C26.0617 37.6075 26.0425 37.6125 26.0234 37.6125ZM26.1329 34.483V37.3118L28.5648 35.8879L28.5652 33.0588L26.1329 34.483Z" fill="#2D50A2"/>
<path d="M30.0093 32.2053V32.4283C30.0093 32.5493 30.0942 32.5983 30.199 32.5378L39.609 27.1058C39.7138 27.0452 39.7988 26.8981 39.7988 26.7772V26.5534C39.7988 26.4324 39.7138 26.3834 39.609 26.4438L30.199 31.8767C30.0942 31.9372 30.0093 32.0843 30.0093 32.2053Z" fill="#2D50A2"/>
<path d="M30.0093 33.5517V33.7746C30.0093 33.8957 30.0942 33.9447 30.199 33.8843L39.609 28.4522C39.7138 28.3916 39.7988 28.2446 39.7988 28.1235V27.8998C39.7988 27.7788 39.7138 27.7297 39.609 27.7903L30.199 33.2231C30.0942 33.2835 30.0093 33.4306 30.0093 33.5517Z" fill="#2D50A2"/>
<path d="M30.0093 34.8911V35.1141C30.0093 35.2351 30.0942 35.2841 30.199 35.2236L39.609 29.7916C39.7138 29.731 39.7988 29.5839 39.7988 29.463V29.2392C39.7988 29.1181 39.7138 29.0691 39.609 29.1296L30.199 34.5625C30.0942 34.623 30.0093 34.7701 30.0093 34.8911Z" fill="#2D50A2"/>
<path d="M27.3932 35.9961L26.7766 35.4027L27.042 34.8405L27.3932 35.1783L28.8535 32.0871L29.119 32.3427L27.3932 35.9961Z" fill="#2D50A2"/>
<path d="M26.0232 40.0721L28.6744 38.5197L28.6741 41.6027L26.0232 43.155V40.0721Z" fill="#2D50A2"/>
<path d="M26.0234 43.2642C26.0045 43.2642 25.9858 43.2593 25.9689 43.2497C25.9348 43.2301 25.9138 43.1938 25.9138 43.1546V40.0717C25.9138 40.0328 25.9344 39.9969 25.968 39.9773L28.6194 38.4247C28.6532 38.405 28.6953 38.4047 28.7291 38.4241C28.7632 38.4437 28.7842 38.48 28.7842 38.5192L28.7839 41.6023C28.7839 41.6411 28.7632 41.6772 28.7297 41.6968L26.0787 43.2492C26.0617 43.2591 26.0425 43.2642 26.0234 43.2642ZM26.1329 40.1346V42.9635L28.5648 41.5395L28.5652 38.7104L26.1329 40.1346Z" fill="#2D50A2"/>
<path d="M30.0093 37.8572V38.0801C30.0093 38.2011 30.0942 38.2502 30.199 38.1896L39.609 32.7576C39.7138 32.6971 39.7988 32.5499 39.7988 32.429V32.2052C39.7988 32.0842 39.7138 32.0352 39.609 32.0956L30.199 37.5285C30.0942 37.589 30.0093 37.7361 30.0093 37.8572Z" fill="#2D50A2"/>
<path d="M30.0093 39.204V39.4271C30.0093 39.548 30.0942 39.5971 30.199 39.5366L39.609 34.1045C39.7138 34.044 39.7988 33.8969 39.7988 33.7759V33.5522C39.7988 33.4311 39.7138 33.3822 39.609 33.4426L30.199 38.8754C30.0942 38.9359 30.0093 39.0831 30.0093 39.204Z" fill="#2D50A2"/>
<path d="M30.0093 40.5429V40.7659C30.0093 40.8869 30.0942 40.936 30.199 40.8754L39.609 35.4434C39.7138 35.3829 39.7988 35.2358 39.7988 35.1148V34.8911C39.7988 34.77 39.7138 34.721 39.609 34.7815L30.199 40.2143C30.0942 40.2748 30.0093 40.4219 30.0093 40.5429Z" fill="#2D50A2"/>
<path d="M26.0232 45.7241L28.6744 44.1716L28.6741 47.2546L26.0232 48.8069V45.7241Z" fill="#2D50A2"/>
<path d="M26.0234 48.917C26.0045 48.917 25.9858 48.9122 25.9689 48.9024C25.9348 48.8829 25.9138 48.8467 25.9138 48.8074V45.7245C25.9138 45.6856 25.9344 45.6497 25.968 45.63L28.6194 44.0775C28.6532 44.0578 28.6953 44.0575 28.7291 44.077C28.7632 44.0965 28.7842 44.1327 28.7842 44.172L28.7839 47.2551C28.7839 47.294 28.7632 47.3299 28.7297 47.3496L26.0787 48.902C26.0617 48.912 26.0425 48.917 26.0234 48.917ZM26.1329 45.7873V48.6163L28.5648 47.1923L28.5652 44.3631L26.1329 45.7873Z" fill="#2D50A2"/>
<path d="M30.0093 43.5095V43.7325C30.0093 43.8534 30.0942 43.9025 30.199 43.842L39.609 38.4099C39.7138 38.3494 39.7988 38.2023 39.7988 38.0813V37.8576C39.7988 37.7365 39.7138 37.6875 39.609 37.748L30.199 43.1808C30.0942 43.2414 30.0093 43.3884 30.0093 43.5095Z" fill="#2D50A2"/>
<path d="M30.0093 44.8559V45.0789C30.0093 45.1999 30.0942 45.2489 30.199 45.1884L39.609 39.7564C39.7138 39.6959 39.7988 39.5487 39.7988 39.4278V39.204C39.7988 39.0831 39.7138 39.034 39.609 39.0945L30.199 44.5272C30.0942 44.5878 30.0093 44.7349 30.0093 44.8559Z" fill="#2D50A2"/>
<path d="M30.0093 46.1955V46.4185C30.0093 46.5395 30.0942 46.5885 30.199 46.5281L39.609 41.0959C39.7138 41.0355 39.7988 40.8884 39.7988 40.7673V40.5436C39.7988 40.4226 39.7138 40.3735 39.609 40.4341L30.199 45.8669C30.0942 45.9273 30.0093 46.0744 30.0093 46.1955Z" fill="#2D50A2"/>
<g style="mix-blend-mode:luminosity">
<path d="M22.6529 53.9433L22.2373 53.7033C22.1063 53.6277 22.0001 53.4438 22.0001 53.2925L22 22.4975C22 22.3463 22.1062 22.1624 22.2372 22.0867L41.3417 11.0567C41.4728 10.9812 41.685 10.9812 41.8161 11.0567L42.2319 11.2968C42.3628 11.3723 42.4691 11.5563 42.4691 11.7075V42.5025C42.4691 42.6537 42.3628 42.8377 42.2319 42.9133L23.1273 53.9433C22.9963 54.0189 22.7839 54.0189 22.6529 53.9433Z" fill="#5CC8BC"/>
<path d="M22.07 22.2637L22.0693 22.2633C22.1132 22.1889 22.1712 22.1252 22.2369 22.0869L30.9111 17.0789C30.9111 17.079 30.911 17.0792 30.911 17.0792L22.2375 22.0869C22.1721 22.1247 22.1129 22.1894 22.07 22.2637ZM32.2361 16.3142C32.2362 16.3141 32.2363 16.3138 32.2364 16.3137L32.9101 15.9247C32.9101 15.9248 32.9101 15.925 32.9102 15.9251L32.2361 16.3142ZM33.8183 15.4007C33.8183 15.4006 33.8183 15.4005 33.8183 15.4005L33.8297 15.3938C33.8293 15.3942 33.8288 15.3945 33.8285 15.3949L33.8183 15.4007ZM34.3559 15.09L41.3417 11.0568C41.4074 11.0191 41.4934 11.0001 41.5791 11.0001C41.6116 11.0001 41.6439 11.0028 41.6751 11.0081C41.6439 11.0028 41.6116 11.0001 41.5793 11.0001C41.4934 11.0001 41.4076 11.0191 41.3421 11.0569L34.357 15.0898C34.3565 15.0898 34.3562 15.09 34.3559 15.09ZM42.2924 11.3405C42.2732 11.3236 42.253 11.3088 42.2323 11.2969L42.0476 11.1903L42.2323 11.2967C42.253 11.3087 42.2731 11.3235 42.2924 11.3405Z" fill="white"/>
<path d="M22.0698 22.2637L22.9597 22.7771C23.0036 22.7025 23.0617 22.638 23.1274 22.6006L42.4664 11.6692C42.4538 11.5515 42.3836 11.4212 42.2922 11.3405C42.2731 11.3236 42.2528 11.3088 42.2321 11.2969L42.0474 11.1903L41.8158 11.0568C41.7752 11.0333 41.7265 11.0171 41.6749 11.0081C41.6437 11.0028 41.6114 11.0001 41.5791 11.0001C41.4932 11.0001 41.4074 11.0191 41.3419 11.0569L22.2374 22.0869C22.1719 22.1246 22.1127 22.1894 22.0698 22.2637Z" fill="#26B6A6"/>
<path d="M22.9937 53.9907H22.9934C22.9942 53.9905 22.9949 53.9904 22.9956 53.9902C22.995 53.9904 22.9943 53.9905 22.9937 53.9907Z" fill="#B4B6B4"/>
<path d="M22 53.2646V52.2052C22 52.2052 22.0001 52.2052 22.0001 52.2052V53.2645L22 53.2646Z" fill="#C7C9C7"/>
<path d="M22.6633 53.949C22.6598 53.9472 22.6563 53.9453 22.6529 53.9435L22.2366 53.7036C22.1062 53.627 22 53.4439 22 53.2928V53.2645L22.0001 53.2644V53.2925C22.0001 53.4437 22.1063 53.6277 22.2373 53.7033L22.6529 53.9433C22.6563 53.9452 22.6598 53.9471 22.6633 53.949Z" fill="#B4B6B4"/>
<path d="M22 52.2051V51.4917L22.0001 51.4919V52.205C22.0001 52.205 22 52.205 22 52.2051Z" fill="#29444E"/>
<path d="M22 40.3723V22.4976L22.0001 40.3723H22Z" fill="#D2D4D1"/>
<path d="M22.0001 46.4719C22 46.4717 22 46.4717 22 46.4715V40.3722H22.0001L22.0001 46.4719Z" fill="#C7C9C7"/>
<path d="M22.0001 48.0583C22 48.0582 22 48.0582 22 48.0582V46.4714C22 46.4716 22 46.4716 22.0001 46.4718V48.0583Z" fill="#1F3239"/>
<path d="M22.0001 51.2681L22 51.2678V48.0584C22 48.0584 22 48.0584 22.0001 48.0585V51.2681Z" fill="#29444E"/>
<path d="M22 22.4973C22 22.4217 22.0262 22.3374 22.069 22.263L22.0696 22.2633C22.0266 22.3377 22 22.4216 22 22.4973Z" fill="#D2D4D1"/>
<path d="M22.0001 51.4919L22 51.4917V51.2677L22.0001 51.2679V51.4919Z" fill="#D2D4D1"/>
<path d="M22.8874 53.9998C22.8239 53.9998 22.7605 53.989 22.7055 53.9677C22.6907 53.9624 22.6767 53.9558 22.6633 53.9489C22.6598 53.947 22.6563 53.9452 22.6529 53.9432L22.2373 53.7032C22.1063 53.6276 22.0001 53.4437 22.0001 53.2924V53.2644V52.205V51.4919V51.2679V48.0583V46.4718L22.0001 40.3721L22 22.4974C22 22.4217 22.0266 22.3378 22.0696 22.2634L22.9595 22.7769C22.9158 22.8513 22.8895 22.9356 22.8895 23.0112V53.8065C22.8895 53.8603 22.9026 53.9029 22.9256 53.9314C22.9489 53.9599 22.9817 53.9754 23.0202 53.9754C23.0306 53.9754 23.0415 53.9743 23.0527 53.972C23.062 53.9701 23.0713 53.9674 23.0805 53.964L23.0713 53.9677L23.0472 53.9764L23.0373 53.9797C23.0238 53.9838 23.0102 53.987 22.9956 53.9901C22.9948 53.9903 22.994 53.9904 22.9932 53.9906H22.9881C22.9553 53.9967 22.9213 53.9998 22.8874 53.9998ZM23.0805 53.964L23.0855 53.9621C23.0839 53.9627 23.0822 53.9634 23.0805 53.964Z" fill="#26B6A6"/>
<path d="M24.3668 25.4809L40.9915 15.8828C41.0701 15.8374 41.1975 15.8374 41.2762 15.8827L41.4364 15.9752C41.5151 16.0206 41.5788 16.131 41.5788 16.2217V41.5839C41.5788 41.6746 41.5151 41.785 41.4364 41.8304L24.8122 51.4286C24.7336 51.474 24.6062 51.474 24.5276 51.4286L24.3668 51.3359C24.2883 51.2905 24.2246 51.1801 24.2246 51.0894V25.7274C24.2246 25.6367 24.2883 25.5263 24.3668 25.4809Z" fill="#F3F2F1"/>
<path d="M41.5737 16.1791C41.5561 16.1209 41.5014 16.1023 41.4367 16.1395L24.8121 25.7379C24.7727 25.7609 24.7365 25.7992 24.7114 25.8442L24.2666 25.5878C24.2918 25.543 24.328 25.5034 24.3674 25.4816L40.9919 15.8833C41.0696 15.8372 41.1978 15.8372 41.2756 15.8833L41.4367 15.9752C41.5034 16.0148 41.5594 16.0991 41.5737 16.1791Z" fill="#FAFAF9"/>
<path d="M24.7781 51.4435C24.7616 51.4501 24.7441 51.4545 24.7255 51.4577L24.6981 51.4611C24.6696 51.4633 24.6401 51.4621 24.6116 51.4577C24.5929 51.4545 24.5754 51.4501 24.559 51.4435C24.548 51.4392 24.537 51.4337 24.5272 51.4281L24.3673 51.3362C24.2884 51.2902 24.2249 51.1806 24.2249 51.0897V25.7279C24.2249 25.6818 24.2402 25.6315 24.2665 25.5875L24.7113 25.844C24.6861 25.8888 24.6696 25.9393 24.6696 25.9841V51.3459C24.6696 51.4237 24.7156 51.4621 24.7781 51.4435Z" fill="#DADBD8"/>
<path d="M26.0232 28.7678L28.6744 27.2153L28.6741 30.2983L26.0232 31.8506V28.7678Z" fill="#FAFAF9"/>
<path d="M26.0234 31.9607C26.0045 31.9607 25.9858 31.9559 25.9689 31.9461C25.9348 31.9266 25.9138 31.8904 25.9138 31.8511V28.7682C25.9138 28.7293 25.9344 28.6933 25.968 28.6737L28.6194 27.1212C28.6532 27.1015 28.6953 27.1012 28.7291 27.1207C28.7632 27.1402 28.7842 27.1764 28.7842 27.2157L28.7839 30.2988C28.7839 30.3377 28.7632 30.3736 28.7297 30.3933L26.0787 31.9456C26.0617 31.9557 26.0425 31.9607 26.0234 31.9607ZM26.1329 28.831V31.66L28.5648 30.236L28.5652 27.4068L26.1329 28.831Z" fill="#273E47"/>
<path d="M30.0093 26.5534V26.7764C30.0093 26.8974 30.0942 26.9465 30.199 26.8859L39.609 21.4539C39.7138 21.3934 39.7988 21.2463 39.7988 21.1253V20.9016C39.7988 20.7805 39.7138 20.7316 39.609 20.792L30.199 26.2248C30.0942 26.2854 30.0093 26.4324 30.0093 26.5534Z" fill="#DADBD8"/>
<path d="M30.0093 27.8996V28.1226C30.0093 28.2436 30.0942 28.2926 30.199 28.2322L39.609 22.8002C39.7138 22.7396 39.7988 22.5926 39.7988 22.4715V22.2477C39.7988 22.1268 39.7138 22.0777 39.609 22.1382L30.199 27.571C30.0942 27.6315 30.0093 27.7787 30.0093 27.8996Z" fill="#DADBD8"/>
<path d="M30.0093 29.2392V29.4622C30.0093 29.5832 30.0942 29.6322 30.199 29.5718L39.609 24.1396C39.7138 24.0792 39.7988 23.9321 39.7988 23.811V23.5873C39.7988 23.4663 39.7138 23.4172 39.609 23.4778L30.199 28.9106C30.0942 28.9711 30.0093 29.1181 30.0093 29.2392Z" fill="#DADBD8"/>
<path d="M27.3932 30.3442L26.7766 29.7508L27.042 29.1885L27.3932 29.5265L28.8535 26.4352L29.119 26.6908L27.3932 30.3442Z" fill="#26B6A6"/>
<path d="M26.0232 34.4202L28.6744 32.8678L28.6741 35.9508L26.0232 37.5032V34.4202Z" fill="#FAFAF9"/>
<path d="M26.0234 37.6125C26.0045 37.6125 25.9858 37.6077 25.9689 37.5981C25.9348 37.5785 25.9138 37.5422 25.9138 37.503V34.4201C25.9138 34.3812 25.9344 34.3453 25.968 34.3255L28.6194 32.7731C28.6532 32.7533 28.6953 32.7531 28.7291 32.7725C28.7632 32.792 28.7842 32.8284 28.7842 32.8676L28.7839 35.9506C28.7839 35.9895 28.7632 36.0256 28.7297 36.0452L26.0787 37.5975C26.0617 37.6075 26.0425 37.6125 26.0234 37.6125ZM26.1329 34.483V37.3118L28.5648 35.8879L28.5652 33.0588L26.1329 34.483Z" fill="#273E47"/>
<path d="M30.0093 32.2053V32.4283C30.0093 32.5493 30.0942 32.5983 30.199 32.5378L39.609 27.1058C39.7138 27.0452 39.7988 26.8981 39.7988 26.7772V26.5534C39.7988 26.4324 39.7138 26.3834 39.609 26.4438L30.199 31.8767C30.0942 31.9372 30.0093 32.0843 30.0093 32.2053Z" fill="#DADBD8"/>
<path d="M30.0093 33.5517V33.7746C30.0093 33.8957 30.0942 33.9447 30.199 33.8843L39.609 28.4522C39.7138 28.3916 39.7988 28.2446 39.7988 28.1235V27.8998C39.7988 27.7788 39.7138 27.7297 39.609 27.7903L30.199 33.2231C30.0942 33.2835 30.0093 33.4306 30.0093 33.5517Z" fill="#DADBD8"/>
<path d="M30.0093 34.8911V35.1141C30.0093 35.2351 30.0942 35.2841 30.199 35.2236L39.609 29.7916C39.7138 29.731 39.7988 29.5839 39.7988 29.463V29.2392C39.7988 29.1181 39.7138 29.0691 39.609 29.1296L30.199 34.5625C30.0942 34.623 30.0093 34.7701 30.0093 34.8911Z" fill="#DADBD8"/>
<path d="M27.3932 35.9961L26.7766 35.4027L27.042 34.8405L27.3932 35.1783L28.8535 32.0871L29.119 32.3427L27.3932 35.9961Z" fill="#26B6A6"/>
<path d="M26.0232 40.0721L28.6744 38.5197L28.6741 41.6027L26.0232 43.155V40.0721Z" fill="#FAFAF9"/>
<path d="M26.0234 43.2642C26.0045 43.2642 25.9858 43.2593 25.9689 43.2497C25.9348 43.2301 25.9138 43.1938 25.9138 43.1546V40.0717C25.9138 40.0328 25.9344 39.9969 25.968 39.9773L28.6194 38.4247C28.6532 38.405 28.6953 38.4047 28.7291 38.4241C28.7632 38.4437 28.7842 38.48 28.7842 38.5192L28.7839 41.6023C28.7839 41.6411 28.7632 41.6772 28.7297 41.6968L26.0787 43.2492C26.0617 43.2591 26.0425 43.2642 26.0234 43.2642ZM26.1329 40.1346V42.9635L28.5648 41.5395L28.5652 38.7104L26.1329 40.1346Z" fill="#273E47"/>
<path d="M30.0093 37.8572V38.0801C30.0093 38.2011 30.0942 38.2502 30.199 38.1896L39.609 32.7576C39.7138 32.6971 39.7988 32.5499 39.7988 32.429V32.2052C39.7988 32.0842 39.7138 32.0352 39.609 32.0956L30.199 37.5285C30.0942 37.589 30.0093 37.7361 30.0093 37.8572Z" fill="#DADBD8"/>
<path d="M30.0093 39.204V39.4271C30.0093 39.548 30.0942 39.5971 30.199 39.5366L39.609 34.1045C39.7138 34.044 39.7988 33.8969 39.7988 33.7759V33.5522C39.7988 33.4311 39.7138 33.3822 39.609 33.4426L30.199 38.8754C30.0942 38.9359 30.0093 39.0831 30.0093 39.204Z" fill="#DADBD8"/>
<path d="M30.0093 40.5429V40.7659C30.0093 40.8869 30.0942 40.936 30.199 40.8754L39.609 35.4434C39.7138 35.3829 39.7988 35.2358 39.7988 35.1148V34.8911C39.7988 34.77 39.7138 34.721 39.609 34.7815L30.199 40.2143C30.0942 40.2748 30.0093 40.4219 30.0093 40.5429Z" fill="#DADBD8"/>
<path d="M26.0232 45.7241L28.6744 44.1716L28.6741 47.2546L26.0232 48.8069V45.7241Z" fill="#FAFAF9"/>
<path d="M26.0234 48.917C26.0045 48.917 25.9858 48.9122 25.9689 48.9024C25.9348 48.8829 25.9138 48.8467 25.9138 48.8074V45.7245C25.9138 45.6856 25.9344 45.6497 25.968 45.63L28.6194 44.0775C28.6532 44.0578 28.6953 44.0575 28.7291 44.077C28.7632 44.0965 28.7842 44.1327 28.7842 44.172L28.7839 47.2551C28.7839 47.294 28.7632 47.3299 28.7297 47.3496L26.0787 48.902C26.0617 48.912 26.0425 48.917 26.0234 48.917ZM26.1329 45.7873V48.6163L28.5648 47.1923L28.5652 44.3631L26.1329 45.7873Z" fill="#273E47"/>
<path d="M30.0093 43.5095V43.7325C30.0093 43.8534 30.0942 43.9025 30.199 43.842L39.609 38.4099C39.7138 38.3494 39.7988 38.2023 39.7988 38.0813V37.8576C39.7988 37.7365 39.7138 37.6875 39.609 37.748L30.199 43.1808C30.0942 43.2414 30.0093 43.3884 30.0093 43.5095Z" fill="#DADBD8"/>
<path d="M30.0093 44.8559V45.0789C30.0093 45.1999 30.0942 45.2489 30.199 45.1884L39.609 39.7564C39.7138 39.6959 39.7988 39.5487 39.7988 39.4278V39.204C39.7988 39.0831 39.7138 39.034 39.609 39.0945L30.199 44.5272C30.0942 44.5878 30.0093 44.7349 30.0093 44.8559Z" fill="#DADBD8"/>
<path d="M30.0093 46.1955V46.4185C30.0093 46.5395 30.0942 46.5885 30.199 46.5281L39.609 41.0959C39.7138 41.0355 39.7988 40.8884 39.7988 40.7673V40.5436C39.7988 40.4226 39.7138 40.3735 39.609 40.4341L30.199 45.8669C30.0942 45.9273 30.0093 46.0744 30.0093 46.1955Z" fill="#DADBD8"/>
</g>
</svg>
