<svg width="64" height="64" viewBox="0 0 64 64" fill="none" xmlns="http://www.w3.org/2000/svg">
<path d="M15.7656 32.4146L14.3209 31.5798C14.2922 31.5667 14.2687 31.5487 14.253 31.5198L13.9871 31.0556L14.845 30.5603L14.8189 30.636L15.7656 32.4146Z" fill="#D05A0C"/>
<path d="M14.7144 30.6309L15.7143 32.3629C15.7781 32.4737 15.9426 32.4578 15.9845 32.337L17.0413 29.2863L14.7144 30.6309Z" fill="#D05A0C"/>
<path d="M33.5341 12.3725C33.5341 11.9268 33.2214 11.3851 32.8354 11.1622L32.2664 10.8338C31.8806 10.6111 31.255 10.6111 30.869 10.8338L10.4767 22.6041C10.0907 22.8271 9.77783 23.3688 9.77783 23.8145V30.4078C9.77783 30.8535 10.0909 31.3952 10.4767 31.6182L11.0456 31.9465C11.4316 32.1692 12.0572 32.1692 12.4432 31.9465L32.9009 20.1287C33.5286 19.7709 33.5343 19.4115 33.5343 18.9656L33.5341 12.3725Z" fill="#D05A0C"/>
<path d="M11.7445 32.1135C11.4915 32.1135 11.2386 32.0577 11.0457 31.9464L10.4767 31.618C10.4707 31.6144 10.4647 31.611 10.4587 31.6073C10.0812 31.3783 9.77795 30.8463 9.77795 30.4077V23.8143C9.77795 23.5916 9.85619 23.3449 9.98252 23.1259L9.98487 23.1272C9.98487 23.1272 9.98487 23.1272 9.98487 23.1274L11.1958 23.8261L11.949 24.2611C11.8227 24.4801 11.7444 24.7269 11.7444 24.9498L11.7445 31.5429C11.7445 31.8593 11.9023 32.0428 12.1319 32.0428C12.1915 32.0428 12.256 32.0306 12.3238 32.005C12.2582 32.0324 12.1881 32.0548 12.1154 32.0718C11.9967 32.0997 11.8706 32.1135 11.7445 32.1135Z" fill="#D05A0C"/>
<path d="M11.9506 24.262L11.1958 23.8262L9.98486 23.1273C10.112 22.9056 10.2848 22.7165 10.477 22.6059L26.8672 13.1436L30.8691 10.8338C30.8889 10.8223 30.9092 10.8116 30.9303 10.8012C31.1145 10.7123 31.3413 10.6679 31.568 10.6679C31.8212 10.6679 32.0736 10.7232 32.2661 10.8341L32.8365 11.1634C32.8711 11.1832 32.9051 11.2057 32.9382 11.2304C33.0858 11.3405 33.2183 11.4954 33.3205 11.6686C33.4141 11.8279 33.4819 12.0034 33.5114 12.174C33.4582 11.9805 33.3249 11.873 33.1489 11.873C33.055 11.873 32.9489 11.9038 32.8365 11.9685L12.4427 23.7404C12.2505 23.8512 12.0745 24.0403 11.9506 24.262Z" fill="#D05A0C"/>
<path d="M13.6223 26.8009L27.8452 18.5818C28.0791 18.447 28.2687 18.5085 28.2687 18.7198C28.2687 18.9308 28.0791 19.2114 27.8452 19.3465L13.6223 27.5653C13.3883 27.7004 13.1987 27.6389 13.1987 27.4276C13.1987 27.2164 13.3883 26.936 13.6223 26.8009Z" fill="#D05A0C"/>
<path d="M13.6223 28.7202L30.7822 18.7887C31.0159 18.6536 31.2055 18.7154 31.2055 18.9264C31.2055 19.1376 31.0159 19.4182 30.7822 19.5533L13.6223 29.4843C13.3883 29.6194 13.1987 29.5578 13.1987 29.3466C13.1987 29.1356 13.3883 28.855 13.6223 28.7202Z" fill="#D05A0C"/>
<path d="M13.6223 24.7863L30.7822 14.8548C31.0159 14.7197 31.2055 14.7815 31.2055 14.9928C31.2055 15.2038 31.0159 15.4844 30.7822 15.6195L13.6223 25.5507C13.3883 25.6858 13.1987 25.6242 13.1987 25.413C13.1987 25.202 13.3883 24.9214 13.6223 24.7863Z" fill="#D05A0C"/>
<path d="M49.9735 23.4062L48.5288 22.5717C48.5001 22.5587 48.4769 22.5404 48.461 22.5117L48.1949 22.0475L49.0532 21.552L49.0269 21.6277L49.9735 23.4062Z" fill="#D05A0C"/>
<path d="M48.9224 21.6229L49.9222 23.3551C49.9861 23.4659 50.1507 23.45 50.1924 23.3292L51.2491 20.2785L48.9224 21.6229Z" fill="#D05A0C"/>
<path d="M53.639 12.3838C53.639 11.9383 53.326 11.3964 52.9403 11.1734L52.3713 10.8451C51.9856 10.6224 51.3597 10.6224 50.974 10.8451L31.5948 22.0096C31.2091 22.2326 30.8961 22.7745 30.8961 23.2202V28.9498C30.8961 29.3955 31.2091 29.9374 31.5948 30.1601L32.1638 30.4887C32.5498 30.7114 33.1754 30.7114 33.5614 30.4887L53.0055 19.2765C53.6333 18.9187 53.639 18.5596 53.639 18.1139V12.3838Z" fill="#D05A0C"/>
<path d="M30.8961 28.9498C30.8961 29.3955 31.2091 29.9374 31.5948 30.1601L32.1638 30.4887C32.5125 30.69 33.0555 30.7098 33.442 30.5471C33.1131 30.6715 32.8625 30.4837 32.8625 30.0853V24.3551C32.8625 24.1324 32.9407 23.8857 33.0672 23.6666L31.1008 22.5314C30.9744 22.7502 30.8961 22.9972 30.8961 23.2202V28.9498Z" fill="#D05A0C"/>
<path d="M53.6163 12.1851C53.5347 11.8883 53.2642 11.7939 52.9414 11.9796L33.5609 23.1457C33.3687 23.2562 33.1926 23.4453 33.0688 23.6672L31.1029 22.5325C31.2302 22.3109 31.4028 22.122 31.5953 22.0109L50.9724 10.8451C51.3602 10.6235 51.9863 10.6235 52.3707 10.8451L52.9414 11.1745C53.2705 11.3636 53.5477 11.7874 53.6163 12.1851Z" fill="#D05A0C"/>
<path d="M34.7405 24.7702L47.9502 17.1572C48.1841 17.0221 48.3737 17.0837 48.3737 17.2949C48.3737 17.5061 48.1841 17.7868 47.9502 17.9218L34.7405 25.5346C34.5066 25.6697 34.317 25.6079 34.317 25.3969C34.317 25.186 34.5066 24.9051 34.7405 24.7702Z" fill="#D05A0C"/>
<path d="M34.7405 26.6892L50.8872 17.3638C51.1209 17.2287 51.3105 17.2905 51.3105 17.5015C51.3105 17.7127 51.1209 17.9933 50.8872 18.1284L34.7405 27.4538C34.5066 27.5889 34.317 27.5271 34.317 27.3161C34.317 27.1049 34.5066 26.8243 34.7405 26.6892Z" fill="#D05A0C"/>
<path d="M15.7656 53.3103L14.3209 52.4758C14.2922 52.4627 14.2687 52.4445 14.253 52.4158L13.9871 51.9516L14.845 51.4561L14.8189 51.5317L15.7656 53.3103Z" fill="#D05A0C"/>
<path d="M14.7144 51.5268L15.7143 53.259C15.7781 53.3695 15.9426 53.3539 15.9845 53.2331L17.0413 50.1824L14.7144 51.5268Z" fill="#D05A0C"/>
<path d="M25.516 37.5431C25.516 37.0974 25.2031 36.5558 24.8171 36.3325L24.2483 36.0042C23.8623 35.7815 23.2367 35.7815 22.8507 36.0042L10.4767 43.1423C10.0907 43.365 9.77783 43.9067 9.77783 44.3524V51.3036C9.77783 51.7492 10.0909 52.2912 10.4767 52.5139L11.0456 52.8425C11.4316 53.0652 12.0572 53.0652 12.4432 52.8425L24.8826 45.6569C25.5103 45.2991 25.516 44.9397 25.516 44.494V37.5431Z" fill="#D05A0C"/>
<path d="M11.7445 53.0093C11.4915 53.0093 11.2386 52.9537 11.0457 52.8424L10.4767 52.5138C10.4707 52.5104 10.4647 52.5067 10.4587 52.5031C10.0812 52.2741 9.77795 51.7421 9.77795 51.3034V44.3523C9.77795 44.1455 9.84529 43.9181 9.95602 43.7115C9.9646 43.6954 9.97344 43.6794 9.98252 43.6638L9.98487 43.6651C9.98487 43.6651 9.98487 43.6651 9.98487 43.6654L10.884 44.1841L11.949 44.799C11.8227 45.0181 11.7444 45.2648 11.7444 45.4878L11.7445 52.4389C11.7445 52.7553 11.9023 52.9389 12.1319 52.9389C12.1915 52.9389 12.256 52.9266 12.3238 52.9008C12.2632 52.9263 12.1989 52.9472 12.1321 52.9639C12.0086 52.9942 11.8765 53.0093 11.7445 53.0093Z" fill="#D05A0C"/>
<path d="M11.9506 44.7998L10.884 44.1841L9.98486 43.6651C10.112 43.4434 10.2848 43.2544 10.477 43.1438L19.9734 37.664L22.8507 36.0041C22.8727 35.9916 22.8953 35.9796 22.9188 35.9683C23.1019 35.8818 23.3259 35.8382 23.5499 35.8382C23.8029 35.8382 24.0556 35.8938 24.2478 36.0046L24.8184 36.3337C24.8528 36.3535 24.887 36.376 24.9201 36.4007C25.0696 36.5126 25.2036 36.6701 25.3066 36.8459C25.3982 37.0037 25.4641 37.1763 25.4931 37.3443C25.4401 37.151 25.3066 37.0436 25.1308 37.0436C25.037 37.0436 24.9308 37.0741 24.8184 37.139L12.4427 44.2782C12.2505 44.3888 12.0745 44.5781 11.9506 44.7998Z" fill="#D05A0C"/>
<path d="M13.6223 47.6966L19.8271 44.1102C20.0608 43.9754 20.2504 44.0369 20.2504 44.2482C20.2504 44.4594 20.0608 44.7398 19.8271 44.8749L13.6223 48.4613C13.3883 48.5961 13.1987 48.5346 13.1987 48.3233C13.1987 48.1123 13.3883 47.8317 13.6223 47.6966Z" fill="#D05A0C"/>
<path d="M13.6223 49.616L22.7639 44.3172C22.9979 44.1821 23.1874 44.2436 23.1874 44.4549C23.1874 44.6661 22.9979 44.9467 22.7639 45.0816L13.6223 50.3803C13.3883 50.5154 13.1987 50.4536 13.1987 50.2426C13.1987 50.0317 13.3883 49.751 13.6223 49.616Z" fill="#D05A0C"/>
<path d="M13.6223 45.6821L22.7639 40.3833C22.9979 40.2485 23.1874 40.31 23.1874 40.521C23.1874 40.7323 22.9979 41.0129 22.7639 41.148L13.6223 46.4467C13.3883 46.5818 13.1987 46.52 13.1987 46.309C13.1987 46.0978 13.3883 45.8174 13.6223 45.6821Z" fill="#D05A0C"/>
<path d="M40.6659 43.8032L39.7244 43.2605L39.6798 43.2211L39.5035 42.9147L39.9829 42.6375L40.6401 43.774L40.6659 43.8032Z" fill="#D05A0C"/>
<path d="M43.077 35.8434C43.077 35.5508 42.8717 35.1951 42.6182 35.0488L42.245 34.8334C41.9918 34.6871 41.5811 34.6871 41.3276 34.8334L32.6771 39.8312C32.4239 39.9775 32.2184 40.3332 32.2184 40.6258V45.0995C32.2184 45.3921 32.4239 45.7475 32.6771 45.8938L33.0506 46.1095C33.3041 46.2558 33.7148 46.2558 33.968 46.1095L39.9835 42.6376L40.6399 43.7746C40.6819 43.8471 40.7898 43.837 40.8172 43.7577L41.5109 41.7551L42.6185 41.1117C42.8717 40.9654 43.077 40.6097 43.077 40.3173V35.8434Z" fill="#D05A0C"/>
<path d="M32.2184 45.0994C32.2184 45.392 32.4239 45.7475 32.6771 45.8938L33.0506 46.1095C33.2795 46.2417 33.6358 46.2532 33.8898 46.1465C33.6739 46.2281 33.5093 46.1064 33.5093 45.8448V41.3709C33.5093 41.2246 33.5607 41.0626 33.6436 40.9189L32.353 40.1736C32.2698 40.3173 32.2184 40.4795 32.2184 40.6258V45.0994Z" fill="#D05A0C"/>
<path d="M43.0621 35.713C43.0084 35.5182 42.831 35.4561 42.619 35.5782L33.9678 40.577C33.8415 40.6495 33.726 40.7737 33.6446 40.9192L32.3542 40.1746C32.4377 40.0291 32.5511 39.905 32.6774 39.8322L41.3265 34.8336C41.5813 34.6881 41.9921 34.6881 42.2448 34.8336L42.619 35.0496C42.8352 35.1737 43.0172 35.452 43.0621 35.713Z" fill="#D05A0C"/>
<path d="M36.0364 41.4428C35.6984 41.6378 35.4243 42.1125 35.4243 42.5029C35.4243 42.8933 35.6984 43.0516 36.0364 42.8563C36.3744 42.6612 36.6485 42.1865 36.6485 41.7961C36.6485 41.4057 36.3744 41.2474 36.0364 41.4428Z" fill="#D05A0C"/>
<path d="M38.293 40.1373C37.955 40.3324 37.6812 40.8071 37.6812 41.1975C37.6812 41.5879 37.955 41.7462 38.293 41.5508C38.6312 41.3558 38.9053 40.8811 38.9053 40.4907C38.9053 40.1003 38.6312 39.942 38.293 40.1373Z" fill="#D05A0C"/>
<path d="M40.5501 38.8316C40.2118 39.0269 39.9377 39.5016 39.9377 39.892C39.938 40.2821 40.2121 40.4404 40.5501 40.2453C40.8881 40.0503 41.1619 39.5754 41.1619 39.185C41.1619 38.7945 40.8881 38.6365 40.5501 38.8316Z" fill="#D05A0C"/>
<g style="mix-blend-mode:luminosity">
<path d="M15.7656 32.4146L14.3209 31.5798C14.2922 31.5667 14.2687 31.5487 14.253 31.5198L13.9871 31.0556L14.845 30.5603L14.8189 30.636L15.7656 32.4146Z" fill="#14B099"/>
<path d="M14.7144 30.6309L15.7143 32.3629C15.7781 32.4737 15.9426 32.4578 15.9845 32.337L17.0413 29.2863L14.7144 30.6309Z" fill="#26B6A6"/>
<path d="M33.5341 12.3725C33.5341 11.9268 33.2214 11.3851 32.8354 11.1622L32.2664 10.8338C31.8806 10.6111 31.255 10.6111 30.869 10.8338L10.4767 22.6041C10.0907 22.8271 9.77783 23.3688 9.77783 23.8145V30.4078C9.77783 30.8535 10.0909 31.3952 10.4767 31.6182L11.0456 31.9465C11.4316 32.1692 12.0572 32.1692 12.4432 31.9465L32.9009 20.1287C33.5286 19.7709 33.5343 19.4115 33.5343 18.9656L33.5341 12.3725Z" fill="#5CC8BC"/>
<path d="M11.7445 32.1135C11.4915 32.1135 11.2386 32.0577 11.0457 31.9464L10.4767 31.618C10.4707 31.6144 10.4647 31.611 10.4587 31.6073C10.0812 31.3783 9.77795 30.8463 9.77795 30.4077V23.8143C9.77795 23.5916 9.85619 23.3449 9.98252 23.1259L9.98487 23.1272C9.98487 23.1272 9.98487 23.1272 9.98487 23.1274L11.1958 23.8261L11.949 24.2611C11.8227 24.4801 11.7444 24.7269 11.7444 24.9498L11.7445 31.5429C11.7445 31.8593 11.9023 32.0428 12.1319 32.0428C12.1915 32.0428 12.256 32.0306 12.3238 32.005C12.2582 32.0324 12.1881 32.0548 12.1154 32.0718C11.9967 32.0997 11.8706 32.1135 11.7445 32.1135Z" fill="#14B099"/>
<path d="M11.9506 24.262L11.1958 23.8262L9.98486 23.1273C10.112 22.9056 10.2848 22.7165 10.477 22.6059L26.8672 13.1436L30.8691 10.8338C30.8889 10.8223 30.9092 10.8116 30.9303 10.8012C31.1145 10.7123 31.3413 10.6679 31.568 10.6679C31.8212 10.6679 32.0736 10.7232 32.2661 10.8341L32.8365 11.1634C32.8711 11.1832 32.9051 11.2057 32.9382 11.2304C33.0858 11.3405 33.2183 11.4954 33.3205 11.6686C33.4141 11.8279 33.4819 12.0034 33.5114 12.174C33.4582 11.9805 33.3249 11.873 33.1489 11.873C33.055 11.873 32.9489 11.9038 32.8365 11.9685L12.4427 23.7404C12.2505 23.8512 12.0745 24.0403 11.9506 24.262Z" fill="#14B099"/>
<path d="M13.6223 26.8009L27.8452 18.5818C28.0791 18.447 28.2687 18.5085 28.2687 18.7198C28.2687 18.9308 28.0791 19.2114 27.8452 19.3465L13.6223 27.5653C13.3883 27.7004 13.1987 27.6389 13.1987 27.4276C13.1987 27.2164 13.3883 26.936 13.6223 26.8009Z" fill="white"/>
<path d="M13.6223 28.7202L30.7822 18.7887C31.0159 18.6536 31.2055 18.7154 31.2055 18.9264C31.2055 19.1376 31.0159 19.4182 30.7822 19.5533L13.6223 29.4843C13.3883 29.6194 13.1987 29.5578 13.1987 29.3466C13.1987 29.1356 13.3883 28.855 13.6223 28.7202Z" fill="white"/>
<path d="M13.6223 24.7863L30.7822 14.8548C31.0159 14.7197 31.2055 14.7815 31.2055 14.9928C31.2055 15.2038 31.0159 15.4844 30.7822 15.6195L13.6223 25.5507C13.3883 25.6858 13.1987 25.6242 13.1987 25.413C13.1987 25.202 13.3883 24.9214 13.6223 24.7863Z" fill="white"/>
<path d="M49.9735 23.4062L48.5288 22.5717C48.5001 22.5587 48.4769 22.5404 48.461 22.5117L48.1949 22.0475L49.0532 21.552L49.0269 21.6277L49.9735 23.4062Z" fill="#17282F"/>
<path d="M48.9224 21.6229L49.9222 23.3551C49.9861 23.4659 50.1507 23.45 50.1924 23.3292L51.2491 20.2785L48.9224 21.6229Z" fill="#273E47"/>
<path d="M53.639 12.3838C53.639 11.9383 53.326 11.3964 52.9403 11.1734L52.3713 10.8451C51.9856 10.6224 51.3597 10.6224 50.974 10.8451L31.5948 22.0096C31.2091 22.2326 30.8961 22.7745 30.8961 23.2202V28.9498C30.8961 29.3955 31.2091 29.9374 31.5948 30.1601L32.1638 30.4887C32.5498 30.7114 33.1754 30.7114 33.5614 30.4887L53.0055 19.2765C53.6333 18.9187 53.639 18.5596 53.639 18.1139V12.3838Z" fill="#33535F"/>
<path d="M30.8961 28.9498C30.8961 29.3955 31.2091 29.9374 31.5948 30.1601L32.1638 30.4887C32.5125 30.69 33.0555 30.7098 33.442 30.5471C33.1131 30.6715 32.8625 30.4837 32.8625 30.0853V24.3551C32.8625 24.1324 32.9407 23.8857 33.0672 23.6666L31.1008 22.5314C30.9744 22.7502 30.8961 22.9972 30.8961 23.2202V28.9498Z" fill="#17282F"/>
<path d="M53.6163 12.1851C53.5347 11.8883 53.2642 11.7939 52.9414 11.9796L33.5609 23.1457C33.3687 23.2562 33.1926 23.4453 33.0688 23.6672L31.1029 22.5325C31.2302 22.3109 31.4028 22.122 31.5953 22.0109L50.9724 10.8451C51.3602 10.6235 51.9863 10.6235 52.3707 10.8451L52.9414 11.1745C53.2705 11.3636 53.5477 11.7874 53.6163 12.1851Z" fill="#17282F"/>
<path d="M34.7405 24.7702L47.9502 17.1572C48.1841 17.0221 48.3737 17.0837 48.3737 17.2949C48.3737 17.5061 48.1841 17.7868 47.9502 17.9218L34.7405 25.5346C34.5066 25.6697 34.317 25.6079 34.317 25.3969C34.317 25.186 34.5066 24.9051 34.7405 24.7702Z" fill="white"/>
<path d="M34.7405 26.6892L50.8872 17.3638C51.1209 17.2287 51.3105 17.2905 51.3105 17.5015C51.3105 17.7127 51.1209 17.9933 50.8872 18.1284L34.7405 27.4538C34.5066 27.5889 34.317 27.5271 34.317 27.3161C34.317 27.1049 34.5066 26.8243 34.7405 26.6892Z" fill="white"/>
<path d="M15.7656 53.3103L14.3209 52.4758C14.2922 52.4627 14.2687 52.4445 14.253 52.4158L13.9871 51.9516L14.845 51.4561L14.8189 51.5317L15.7656 53.3103Z" fill="#14B099"/>
<path d="M14.7144 51.5268L15.7143 53.259C15.7781 53.3695 15.9426 53.3539 15.9845 53.2331L17.0413 50.1824L14.7144 51.5268Z" fill="#26B6A6"/>
<path d="M25.516 37.5431C25.516 37.0974 25.2031 36.5558 24.8171 36.3325L24.2483 36.0042C23.8623 35.7815 23.2367 35.7815 22.8507 36.0042L10.4767 43.1423C10.0907 43.365 9.77783 43.9067 9.77783 44.3524V51.3036C9.77783 51.7492 10.0909 52.2912 10.4767 52.5139L11.0456 52.8425C11.4316 53.0652 12.0572 53.0652 12.4432 52.8425L24.8826 45.6569C25.5103 45.2991 25.516 44.9397 25.516 44.494V37.5431Z" fill="#5CC8BC"/>
<path d="M11.7445 53.0093C11.4915 53.0093 11.2386 52.9537 11.0457 52.8424L10.4767 52.5138C10.4707 52.5104 10.4647 52.5067 10.4587 52.5031C10.0812 52.2741 9.77795 51.7421 9.77795 51.3034V44.3523C9.77795 44.1455 9.84529 43.9181 9.95602 43.7115C9.9646 43.6954 9.97344 43.6794 9.98252 43.6638L9.98487 43.6651C9.98487 43.6651 9.98487 43.6651 9.98487 43.6654L10.884 44.1841L11.949 44.799C11.8227 45.0181 11.7444 45.2648 11.7444 45.4878L11.7445 52.4389C11.7445 52.7553 11.9023 52.9389 12.1319 52.9389C12.1915 52.9389 12.256 52.9266 12.3238 52.9008C12.2632 52.9263 12.1989 52.9472 12.1321 52.9639C12.0086 52.9942 11.8765 53.0093 11.7445 53.0093Z" fill="#14B099"/>
<path d="M11.9506 44.7998L10.884 44.1841L9.98486 43.6651C10.112 43.4434 10.2848 43.2544 10.477 43.1438L19.9734 37.664L22.8507 36.0041C22.8727 35.9916 22.8953 35.9796 22.9188 35.9683C23.1019 35.8818 23.3259 35.8382 23.5499 35.8382C23.8029 35.8382 24.0556 35.8938 24.2478 36.0046L24.8184 36.3337C24.8528 36.3535 24.887 36.376 24.9201 36.4007C25.0696 36.5126 25.2036 36.6701 25.3066 36.8459C25.3982 37.0037 25.4641 37.1763 25.4931 37.3443C25.4401 37.151 25.3066 37.0436 25.1308 37.0436C25.037 37.0436 24.9308 37.0741 24.8184 37.139L12.4427 44.2782C12.2505 44.3888 12.0745 44.5781 11.9506 44.7998Z" fill="#14B099"/>
<path d="M13.6223 47.6966L19.8271 44.1102C20.0608 43.9754 20.2504 44.0369 20.2504 44.2482C20.2504 44.4594 20.0608 44.7398 19.8271 44.8749L13.6223 48.4613C13.3883 48.5961 13.1987 48.5346 13.1987 48.3233C13.1987 48.1123 13.3883 47.8317 13.6223 47.6966Z" fill="white"/>
<path d="M13.6223 49.616L22.7639 44.3172C22.9979 44.1821 23.1874 44.2436 23.1874 44.4549C23.1874 44.6661 22.9979 44.9467 22.7639 45.0816L13.6223 50.3803C13.3883 50.5154 13.1987 50.4536 13.1987 50.2426C13.1987 50.0317 13.3883 49.751 13.6223 49.616Z" fill="white"/>
<path d="M13.6223 45.6821L22.7639 40.3833C22.9979 40.2485 23.1874 40.31 23.1874 40.521C23.1874 40.7323 22.9979 41.0129 22.7639 41.148L13.6223 46.4467C13.3883 46.5818 13.1987 46.52 13.1987 46.309C13.1987 46.0978 13.3883 45.8174 13.6223 45.6821Z" fill="white"/>
<path d="M40.6659 43.8032L39.7244 43.2605L39.6798 43.2211L39.5035 42.9147L39.9829 42.6375L40.6401 43.774L40.6659 43.8032Z" fill="#17282F"/>
<path d="M43.077 35.8434C43.077 35.5508 42.8717 35.1951 42.6182 35.0488L42.245 34.8334C41.9918 34.6871 41.5811 34.6871 41.3276 34.8334L32.6771 39.8312C32.4239 39.9775 32.2184 40.3332 32.2184 40.6258V45.0995C32.2184 45.3921 32.4239 45.7475 32.6771 45.8938L33.0506 46.1095C33.3041 46.2558 33.7148 46.2558 33.968 46.1095L39.9835 42.6376L40.6399 43.7746C40.6819 43.8471 40.7898 43.837 40.8172 43.7577L41.5109 41.7551L42.6185 41.1117C42.8717 40.9654 43.077 40.6097 43.077 40.3173V35.8434Z" fill="#33535F"/>
<path d="M32.2184 45.0994C32.2184 45.392 32.4239 45.7475 32.6771 45.8938L33.0506 46.1095C33.2795 46.2417 33.6358 46.2532 33.8898 46.1465C33.6739 46.2281 33.5093 46.1064 33.5093 45.8448V41.3709C33.5093 41.2246 33.5607 41.0626 33.6436 40.9189L32.353 40.1736C32.2698 40.3173 32.2184 40.4795 32.2184 40.6258V45.0994Z" fill="#17282F"/>
<path d="M43.0621 35.713C43.0084 35.5182 42.831 35.4561 42.619 35.5782L33.9678 40.577C33.8415 40.6495 33.726 40.7737 33.6446 40.9192L32.3542 40.1746C32.4377 40.0291 32.5511 39.905 32.6774 39.8322L41.3265 34.8336C41.5813 34.6881 41.9921 34.6881 42.2448 34.8336L42.619 35.0496C42.8352 35.1737 43.0172 35.452 43.0621 35.713Z" fill="#17282F"/>
<path d="M36.0364 41.4428C35.6984 41.6378 35.4243 42.1125 35.4243 42.5029C35.4243 42.8933 35.6984 43.0516 36.0364 42.8563C36.3744 42.6612 36.6485 42.1865 36.6485 41.7961C36.6485 41.4057 36.3744 41.2474 36.0364 41.4428Z" fill="white"/>
<path d="M38.293 40.1373C37.955 40.3324 37.6812 40.8071 37.6812 41.1975C37.6812 41.5879 37.955 41.7462 38.293 41.5508C38.6312 41.3558 38.9053 40.8811 38.9053 40.4907C38.9053 40.1003 38.6312 39.942 38.293 40.1373Z" fill="white"/>
<path d="M40.5501 38.8316C40.2118 39.0269 39.9377 39.5016 39.9377 39.892C39.938 40.2821 40.2121 40.4404 40.5501 40.2453C40.8881 40.0503 41.1619 39.5754 41.1619 39.185C41.1619 38.7945 40.8881 38.6365 40.5501 38.8316Z" fill="white"/>
</g>
</svg>
